<svg xmlns="http://www.w3.org/2000/svg" viewBox="0 0 64 64">
  <circle cx="32" cy="32" r="32" fill="#46632e"/>
  <!-- Phytosanitary bottle -->
  <!-- Cap -->
  <rect x="27" y="13" width="10" height="5" rx="1" fill="#fff"/>
  <!-- Neck -->
  <rect x="29" y="18" width="6" height="4" fill="#fff"/>
  <!-- Bottle body -->
  <path d="M22 26 C22 23 25 22 29 22 L35 22 C39 22 42 23 42 26 L42 49 C42 50 41 51 40 51 L24 51 C23 51 22 50 22 49 Z" fill="none" stroke="#fff" stroke-width="2.5" stroke-linejoin="round"/>
  <!-- Label -->
  <rect x="25" y="32" width="14" height="13" fill="#fff"/>
  <!-- Leaf inside label (agro) -->
  <path d="M28 38 Q32 34 36 38 Q36 42 32 43 Q28 42 28 38 Z" fill="#46632e"/>
  <line x1="32" y1="39" x2="32" y2="43" stroke="#46632e" stroke-width="1"/>
</svg>
