<svg id="Layer_18" viewBox="0 0 512 512" xmlns="http://www.w3.org/2000/svg" data-name="Layer 18"><path d="m448.41 445.87c-1.77-8.91-10.53-18.17-19.58-21.02-5.49-1.7-112.33-8.78-172.79-8.7-60.46-.08-167.3 7-172.79 8.7-9.04 2.84-17.8 12.11-19.58 21.02-1 5.44-1.88 12.72-1.28 22.49.64 9.78 2.41 16.89 4.04 22.16 2.83 8.62 12.31 16.78 21.23 18.69 5.49 1.17 110.63 2.76 168.38 2.78 57.75-.03 162.89-1.62 168.38-2.78 8.91-1.91 18.39-10.07 21.23-18.69 1.63-5.27 3.4-12.39 4.04-22.16.59-9.78-.29-17.06-1.28-22.49z" fill="#28283f"/><g fill="#dd4247"><rect height="42.54" rx="21.27" transform="matrix(0 1 -1 0 294.85 -217.24)" width="77.61" x="217.24" y="17.53"/><rect height="42.54" rx="21.27" transform="matrix(.707 .707 -.707 .707 102.43 -40.03)" width="77.61" x="60.73" y="82.36"/><rect height="42.54" rx="21.27" transform="matrix(-.707 .707 -.707 -.707 777.55 -114.79)" width="77.61" x="373.74" y="82.36"/><rect height="42.54" rx="21.27" transform="matrix(-1 0 0 -1 946.47 520.31)" width="77.61" x="434.43" y="238.87"/><rect height="42.54" rx="21.27" transform="matrix(-1 0 0 -1 77.69 520.3)" width="77.61" x=".04" y="238.87"/><path d="m256.04 416.15s0 0 0 0c44.02-.06 112.63 3.68 148.8 6.37 1.95-46.8 1.8-122.16 1.41-168-1.25-80.16-71.16-145.05-150.22-145.04-79.05 0-148.97 64.88-150.22 145.04-.38 45.84-.54 121.19 1.41 167.99 36.17-2.69 104.78-6.43 148.8-6.37z"/></g><path d="m390.18 191.5c-25.3-48.56-77.36-82.02-134.13-82.02-79.05 0-148.97 64.88-150.22 145.04-.33 39.17-.49 99.89.69 145.94 4.67.23 9.36.36 14.09.36 129.86 0 238.94-88.99 269.57-209.32z" fill="#e55353"/><path d="m256.04 340.27c-12.39 0-22.44-10.05-22.44-22.44s10.05-22.44 22.44-22.44 22.44 10.05 22.44 22.44-10.05 22.44-22.44 22.44zm23.58-156.77c-1.05 33.3-2.09 45.05-3.14 78.34-.41 10.94-9.55 19.49-20.44 19.49-10.88 0-20.03-8.55-20.44-19.49-1.05-33.3-2.09-45.05-3.14-78.34-.41-10.93 10.14-20.19 23.58-20.18 13.43 0 23.98 9.26 23.58 20.18z" fill="#fff"/></svg>