<svg id="Layer_3" enable-background="new 0 0 64 64" height="512" viewBox="0 0 64 64" width="512" xmlns="http://www.w3.org/2000/svg"><g fill="#4c4a4f"><path d="m3 3h-2c-.552 0-1 .448-1 1s.448 1 1 1h2c.552 0 1-.448 1-1s-.448-1-1-1z"/><path d="m11 3h-4v-2c0-.552-.448-1-1-1s-1 .448-1 1v7c0 .552.448 1 1 1s1-.448 1-1v-3h4c.552 0 1-.448 1-1s-.448-1-1-1z"/><path d="m55 3h-2c-.552 0-1 .448-1 1s.448 1 1 1h2c.552 0 1-.448 1-1s-.448-1-1-1z"/><path d="m63 3h-4v-2c0-.552-.448-1-1-1s-1 .448-1 1v7c0 .552.448 1 1 1s1-.448 1-1v-3h4c.552 0 1-.448 1-1s-.448-1-1-1z"/></g><path d="m11 12v6h-2-2c-1.1 0-2-.9-2-2v-4z" fill="#aac348"/><path d="m11 16v2h-4c-1.1 0-2-.9-2-2z" fill="#879a39"/><path d="m63 63h-20l-1.11-1.11 3.11-3.89h2l2-2h3 2l3 3h2z" fill="#cc8964"/><path d="m41.89 61.89-.89 1.11h-17l-1.67-1.67 2.67-3.33h2l2-2h3 2l3 3h2z" fill="#cc8964"/><path d="m41.33 61.33-1.33 1.67h-19l1.6-2h8.652c.473 0 .92-.215 1.215-.585.492-.618.442-1.507-.117-2.065l-.895-.895c-.291-.291-.686-.455-1.098-.455h-1.357l-.5-.5.5-.5h5l3 3h2z" fill="#9a4738"/><path d="m61.33 61.33-1.33 1.67h-19l1.6-2h8.652c.473 0 .92-.215 1.215-.585.492-.618.442-1.507-.117-2.065l-.895-.895c-.291-.291-.686-.455-1.098-.455h-1.357l-.5-.5.5-.5h5l3 3h2z" fill="#9a4738"/><path d="m8 58 2-2h2 3l3 3h2l2.33 2.33-1.33 1.67h-19l4-5z" fill="#cc8964"/><path d="m22.33 61.33-1.33 1.67h-19l1.6-2h8.652c.473 0 .92-.215 1.215-.585.492-.618.442-1.507-.117-2.065l-.895-.895c-.291-.291-.686-.455-1.098-.455h-1.357l-.5-.5.5-.5h5l3 3h2z" fill="#9a4738"/><g fill="#aac348"><path d="m46 46c5 0 6 4 6 4-7 7-9-4-9-4z"/><path d="m26 46c5 0 6 4 6 4-7 7-9-4-9-4z"/><path d="m6 46c5 0 6 4 6 4-7 7-9-4-9-4z"/></g><path d="m12 50c-7 7-9-4-9-4s5 5 9 4z" fill="#879a39"/><path d="m32 50c-7 7-9-4-9-4s5 5 9 4z" fill="#879a39"/><path d="m52 50c-7 7-9-4-9-4s5 5 9 4z" fill="#879a39"/><path d="m29 26h6v3h-6z" fill="#85ddff"/><path d="m45 7h-26c0-2.21 1.79-4 4-4h18c2.21 0 4 1.79 4 4z" fill="#eaeaea"/><path d="m45 7v5h-4-18-4v-5z" fill="#85ddff"/><path d="m38 7v-2c0-.73-.2-1.41-.54-2h3.54c2.21 0 4 1.79 4 4z" fill="#b8b8b7"/><path d="m45 7v5h-26v-2h16c1.657 0 3-1.343 3-3z" fill="#52a3bc"/><path d="m39.25 24.28c-.15.99-.99 1.72-1.98 1.72h-2.27-6-2.27c-.99 0-1.83-.73-1.98-1.72l-.32-2.28h7.57 7.57z" fill="#222227"/><path d="m8 8 3 4h-6v-4h1z" fill="#686868"/><path d="m58 8h1v4h-6l3-4z" fill="#686868"/><path d="m59 12v4c0 1.1-.9 2-2 2h-2-2v-6z" fill="#879a39"/><path d="m24.43 22h-5.43c-1.1 0-2-.9-2-2 0-.55-.22-1.05-.59-1.41-.36-.37-.86-.59-1.41-.59h-1-3v-6h6 2 4z" fill="#eaeaea"/><path d="m47 12h6v6h-3-1c-1.1 0-2 .9-2 2 0 .55-.22 1.05-.59 1.41-.36.37-.86.59-1.41.59h-5.43l1.43-10h4z" fill="#eaeaea"/><path d="m41 12-1.43 10h-7.57-7.57l-1.43-10z" fill="#686868"/><path d="m24.43 22h-5.43c-1.1 0-2-.9-2-2 0-.55-.22-1.05-.59-1.41-.36-.37-.86-.59-1.41-.59h-4v-2h12.57z" fill="#b8b8b7"/><path d="m53 12v6h-4c-1.1 0-2 .9-2 2 0 .55-.22 1.05-.59 1.41-.36.37-.86.59-1.41.59h-5.43l.86-6h2.57c2.21 0 4-1.79 4-4z" fill="#b8b8b7"/><path d="m40.43 16-.86 6h-15.14l-.86-6z" fill="#585858"/><path d="m22.25 8.875c-.643 0-.645 1 0 1 .643 0 .645-1 0-1z" fill="#fff"/><path d="m25.187 8.938h-1c-.643 0-.645 1 0 1h1c.644 0 .645-1 0-1z" fill="#fff"/><g><g><path d="m63 64h-62c-.552 0-1-.448-1-1s.448-1 1-1h62c.552 0 1 .448 1 1s-.448 1-1 1z" fill="#9a4738"/></g></g><g><path d="m12 56c-.552 0-1-.448-1-1v-6c0-.552.448-1 1-1s1 .448 1 1v6c0 .552-.448 1-1 1z" fill="#bbcf6b"/></g><g><path d="m32 56c-.552 0-1-.448-1-1v-5c0-.552.448-1 1-1s1 .448 1 1v5c0 .552-.448 1-1 1z" fill="#bbcf6b"/></g><g><path d="m52 56c-.552 0-1-.448-1-1v-5c0-.552.448-1 1-1s1 .448 1 1v5c0 .552-.448 1-1 1z" fill="#bbcf6b"/></g><g><g><g><circle cx="32" cy="45" fill="#85ddff" r="1"/><path d="m32 46.5c-.827 0-1.5-.673-1.5-1.5s.673-1.5 1.5-1.5 1.5.673 1.5 1.5-.673 1.5-1.5 1.5zm0-2c-.276 0-.5.224-.5.5s.224.5.5.5.5-.224.5-.5-.224-.5-.5-.5z" fill="#a6e1fd"/></g></g><g><g><g><circle cx="22.031" cy="33.5" fill="#85ddff" r="1"/><path d="m22.031 35c-.744 0-1.392-.555-1.488-1.312-.103-.821.48-1.573 1.301-1.676.829-.101 1.573.48 1.676 1.301.05.397-.058.791-.303 1.107-.246.316-.6.519-.998.568-.064.008-.126.012-.188.012zm.001-2c-.021 0-.042.001-.063.004-.132.017-.25.084-.333.189-.082.105-.118.237-.101.369.034.273.282.464.559.434.133-.017.25-.084.333-.189s.118-.236.101-.369-.084-.251-.189-.333c-.09-.069-.196-.105-.307-.105z" fill="#a6e1fd"/></g></g><g><g><circle cx="18.063" cy="34" fill="#85ddff" r="1"/><path d="m18.062 35.5c-.745 0-1.392-.555-1.487-1.313-.05-.397.057-.791.303-1.107s.6-.519.998-.568c.821-.1 1.572.48 1.675 1.301.05.397-.057.791-.303 1.107s-.6.519-.998.568c-.063.008-.125.012-.188.012zm.001-2c-.021 0-.042.001-.063.004-.133.017-.251.084-.333.189s-.118.236-.101.369c.034.274.282.464.559.434.132-.017.25-.084.332-.189s.118-.236.101-.369-.084-.251-.189-.333c-.088-.069-.195-.105-.306-.105z" fill="#a6e1fd"/></g></g><g><g><circle cx="14.094" cy="34.5" fill="#85ddff" r="1"/><path d="m14.093 36c-.745 0-1.392-.555-1.487-1.313-.05-.397.058-.791.303-1.107.246-.316.6-.519.998-.568.823-.105 1.572.48 1.676 1.3.103.821-.48 1.573-1.301 1.676-.064.008-.127.012-.189.012zm.001-2c-.021 0-.042.001-.063.004-.133.017-.25.084-.333.189s-.118.236-.101.369.084.251.189.333c.106.083.242.119.369.101.132-.017.25-.084.333-.189.082-.105.118-.237.101-.369-.03-.253-.247-.438-.495-.438z" fill="#a6e1fd"/></g></g></g><g><g><g><circle cx="41.969" cy="33.5" fill="#85ddff" r="1"/><path d="m41.969 35c-.062 0-.125-.004-.188-.012-.397-.05-.751-.252-.998-.568-.246-.317-.354-.71-.303-1.108.104-.82.855-1.399 1.676-1.3.82.103 1.404.855 1.301 1.676-.096.757-.744 1.312-1.488 1.312zm-.001-2c-.11 0-.217.036-.306.105-.105.082-.173.2-.189.333-.017.133.019.264.101.369s.2.173.333.189c.271.032.524-.16.559-.434.017-.132-.02-.263-.101-.369-.082-.105-.2-.173-.333-.189-.022-.003-.043-.004-.064-.004z" fill="#a6e1fd"/></g></g><g><g><circle cx="45.937" cy="34" fill="#85ddff" r="1"/><path d="m45.938 35.5c-.063 0-.125-.004-.188-.012-.397-.05-.751-.252-.998-.568-.246-.317-.353-.71-.303-1.108.103-.821.855-1.403 1.675-1.3.397.05.752.252.998.568.246.317.354.71.303 1.108-.095.757-.742 1.312-1.487 1.312zm-.063-1.004c.275.03.524-.161.559-.434.017-.133-.019-.264-.101-.369s-.2-.173-.333-.189c-.133-.015-.263.019-.369.101s-.173.2-.189.333.019.264.101.369c.081.105.199.172.332.189z" fill="#a6e1fd"/></g></g><g><g><circle cx="49.906" cy="34.5" fill="#85ddff" r="1"/><path d="m49.907 36c-.063 0-.125-.004-.188-.012-.82-.103-1.404-.855-1.301-1.676.104-.82.849-1.406 1.676-1.301.397.05.751.252.998.568.246.317.354.71.303 1.108-.096.758-.744 1.313-1.488 1.313zm-.001-2c-.248 0-.464.185-.496.438-.017.132.02.263.101.369.082.105.2.173.333.189.129.017.263-.019.369-.101.105-.082.173-.2.189-.333.017-.133-.019-.264-.101-.369s-.2-.173-.333-.189c-.021-.003-.042-.004-.062-.004z" fill="#a6e1fd"/></g></g></g><g><g><circle cx="19.515" cy="41.485" fill="#85ddff" r="1"/><path d="m19.515 42.985c-.4 0-.777-.156-1.061-.439s-.439-.66-.439-1.061.156-.778.439-1.061c.566-.566 1.555-.565 2.122 0 .283.283.439.66.439 1.061 0 .4-.156.777-.439 1.061-.284.283-.66.439-1.061.439zm0-2c-.133 0-.259.052-.354.146-.095.095-.146.22-.146.354 0 .133.052.259.146.354.19.189.519.189.707 0 .094-.095.146-.22.146-.354s-.052-.259-.146-.353c-.095-.095-.22-.147-.353-.147z" fill="#a6e1fd"/></g></g><g><g><circle cx="44.485" cy="41.485" fill="#85ddff" r="1"/><path d="m44.485 42.985c-.401 0-.778-.156-1.061-.439s-.439-.66-.439-1.061.156-.778.439-1.061c.565-.565 1.554-.567 2.121 0 .283.283.439.66.439 1.061 0 .4-.156.777-.439 1.061s-.659.439-1.06.439zm0-2c-.134 0-.259.052-.353.146-.095.095-.147.22-.147.354 0 .133.052.259.146.354.189.189.518.189.707 0 .094-.095.146-.22.146-.354s-.052-.259-.146-.353c-.094-.094-.219-.147-.353-.147z" fill="#a6e1fd"/></g></g></g><g><path d="m12.001 28c-.072 0-.145-.008-.218-.024-.539-.12-.879-.654-.759-1.193l2-9c.119-.54.655-.879 1.193-.759.539.12.879.654.759 1.193l-2 9c-.103.466-.517.783-.975.783z" fill="#222227"/></g><g><path d="m51.999 28c-.458 0-.872-.317-.975-.783l-2-9c-.12-.539.22-1.073.759-1.193.536-.119 1.073.22 1.193.759l2 9c.12.539-.22 1.073-.759 1.193-.073.016-.146.024-.218.024z" fill="#222227"/></g><g><path d="m9 22h-2c-.552 0-1-.448-1-1v-3c0-.552.448-1 1-1h2c.552 0 1 .448 1 1v3c0 .552-.448 1-1 1z" fill="#222227"/></g><g><path d="m57 22h-2c-.552 0-1-.448-1-1v-3c0-.552.448-1 1-1h2c.552 0 1 .448 1 1v3c0 .552-.448 1-1 1z" fill="#222227"/></g><g><g><path d="m41.657 39.657c-.256 0-.512-.098-.707-.293l-5.657-5.657c-.391-.391-.391-1.023 0-1.414s1.023-.391 1.414 0l5.657 5.657c.391.391.391 1.023 0 1.414-.196.195-.451.293-.707.293z" fill="#85ddff"/><path d="m41.657 40.157c-.4 0-.777-.156-1.061-.439l-5.657-5.657c-.585-.585-.585-1.536 0-2.121s1.536-.585 2.121 0l5.657 5.657c.585.585.585 1.536 0 2.121-.283.282-.66.439-1.06.439zm-5.657-7.657c-.128 0-.256.048-.354.146-.195.195-.195.512 0 .707l5.657 5.657c.189.188.518.188.707 0 .195-.195.195-.512 0-.707l-5.657-5.657c-.097-.097-.225-.146-.353-.146z" fill="#a6e1fd"/></g></g><g><g><path d="m22.343 39.657c-.256 0-.512-.098-.707-.293-.391-.391-.391-1.023 0-1.414l5.657-5.657c.391-.391 1.023-.391 1.414 0s.391 1.023 0 1.414l-5.657 5.657c-.195.195-.451.293-.707.293z" fill="#85ddff"/><path d="m22.343 40.157c-.4 0-.777-.156-1.061-.439-.585-.585-.585-1.536 0-2.121l5.657-5.657c.585-.585 1.536-.585 2.121 0s.585 1.536 0 2.121l-5.657 5.657c-.282.282-.659.439-1.06.439zm5.657-7.657c-.128 0-.256.048-.354.146l-5.657 5.657c-.195.195-.195.512 0 .707.189.188.518.188.707 0l5.657-5.657c.195-.195.195-.512 0-.707-.097-.097-.225-.146-.353-.146z" fill="#a6e1fd"/></g></g><g><g><path d="m32 42c-.552 0-1-.448-1-1v-8c0-.552.448-1 1-1s1 .448 1 1v8c0 .552-.448 1-1 1z" fill="#85ddff"/><path d="m32 42.5c-.827 0-1.5-.673-1.5-1.5v-8c0-.827.673-1.5 1.5-1.5s1.5.673 1.5 1.5v8c0 .827-.673 1.5-1.5 1.5zm0-10c-.276 0-.5.224-.5.5v8c0 .276.224.5.5.5s.5-.224.5-.5v-8c0-.276-.224-.5-.5-.5z" fill="#a6e1fd"/></g></g><path d="m38 46h3s-2 11-9 4c0 0 1-4 6-4z" fill="#aac348"/><path d="m32 50c7 7 9-4 9-4s-5 5-9 4z" fill="#879a39"/><path d="m18 46h3s-2 11-9 4c0 0 1-4 6-4z" fill="#aac348"/><path d="m12 50c7 7 9-4 9-4s-5 5-9 4z" fill="#879a39"/><path d="m58 46h3s-2 11-9 4c0 0 1-4 6-4z" fill="#aac348"/><path d="m52 50c7 7 9-4 9-4s-5 5-9 4z" fill="#879a39"/></svg>