<svg id="Capa_1" enable-background="new 0 0 512 512" height="512" viewBox="0 0 512 512" width="512" xmlns="http://www.w3.org/2000/svg"><g><path d="m482.059 329.076c5.179-19.829 7.944-40.633 7.944-62.084 0-85.739-44.052-161.177-110.746-204.955h-80.991v-34.223c-17.15-3.803-34.971-5.824-53.265-5.824-135.31 0-245.001 109.691-245.001 245.002 0 17.895 1.936 35.335 5.579 52.139 0 0 93.6 113.245 241.773 113.245s234.707-103.3 234.707-103.3z" fill="#fffbb3"/><path d="m354.359 80.625-3.324 28.897c5.657 10.347 16.632 17.373 29.257 17.39l11.23.015c12.625.017 23.619-6.979 29.304-17.311l3.326-28.992h-69.793z" fill="#6ad9fb"/><path d="m354.359 80.625h-12.833l-7.581 9.695-16.56 37.977c-2.565 5.884.15 12.796 6.033 15.362s12.796-.149 15.362-6.033l18.348-42.078z" fill="#1d2e79"/><path d="m385.009 45.458-67.781-.092-14.202 15.176 14.158 17.1 12.561 9.829c6.67 5.219 14.893 8.06 23.363 8.072l37.379.051 13.705-28.885z" fill="#2a428b"/><path d="m454.422 128.484-16.456-38.022-13.816-9.836-9.381 15.002 18.233 42.127c2.549 5.891 9.455 8.624 15.345 6.075 5.891-2.55 8.625-9.456 6.075-15.346z" fill="#1d2e79"/><path d="m30.164 384.797c-11.159-20.311-19.534-42.367-24.585-65.666 11.607-2.75 24.028.792 32.497 9.726 3.754 3.961 10.143 4.053 13.885.08 13.446-14.276 36.127-14.296 49.592-.005 3.715 3.943 10.103 3.943 13.818 0 13.472-14.298 36.151-14.262 49.588 0 3.715 3.942 10.103 3.942 13.818 0 13.472-14.299 36.151-14.261 49.588 0 3.28 3.482 8.644 3.883 12.412 1.216 2.123-1.503 10.174-11.925 26.2-11.925 9.774 0 18.582 4.116 24.794 10.709 3.715 3.942 10.103 3.942 13.818 0 13.472-14.299 36.151-14.261 49.588 0 3.715 3.943 10.103 3.943 13.818 0l26.956 89.641h-335.426z" fill="#00b7a0"/><path d="m432.472 328.857c-3.754 3.961-10.143 4.053-13.885.08-13.463-14.294-36.144-14.278-49.593-.005 0 0-33.281 36.049 0 62.121l53.864 23.656 39.195-33.989c8.52-16.228 15.274-33.527 20.006-51.645-13.085-14.093-35.818-14.743-49.587-.218z" fill="#3ecd8d"/><path d="m368.995 391.053c-3.715 3.942-10.103 3.942-13.818 0-13.437-14.261-36.116-14.299-49.588 0-3.715 3.942-10.103 3.942-13.818 0-6.212-6.593-15.02-10.709-24.794-10.709-16.026 0-24.077 10.421-26.2 11.925-3.768 2.668-9.131 2.266-12.412-1.216-13.437-14.261-36.117-14.299-49.588 0-3.715 3.942-10.103 3.942-13.818 0-13.437-14.262-36.116-14.298-49.588 0-3.715 3.942-10.103 3.942-13.818 0-13.466-14.292-36.147-14.271-49.592.005-3.742 3.973-10.13 3.881-13.885-.08-2.362-2.492-5.039-4.548-7.913-6.181 11.763 21.409 26.626 40.871 43.994 57.776 0 0 39.701 31.226 69.368 34.514 0 0 178.367 8.3 242.433-20.956z" fill="#3ecd8d"/><path d="m432.472 390.978c-3.754 3.961-10.143 4.053-13.885.08-13.463-14.294-36.144-14.278-49.593-.005 0 0-30.366 31.755 0 62.121l11.281 5.341 30.756-11.362c20.577-18.975 37.896-41.431 51.022-66.433-10.446-1.522-21.542 1.777-29.581 10.258z" fill="#95db76"/><path d="m361.242 482.701c-31.31 16.909-66.713 27.21-104.349 29.009v-.007l-76.211-40.866-49.909 12.934c-20.828-11.002-39.882-24.911-56.614-41.197 9.875-.752 20.018 2.772 27.396 10.602 3.715 3.942 10.103 3.942 13.818 0 13.472-14.298 36.151-14.262 49.588 0 3.715 3.942 10.103 3.942 13.818 0 13.472-14.299 36.151-14.261 49.588 0 3.28 3.482 8.644 3.883 12.412 1.215 2.123-1.503 10.174-11.925 26.2-11.925 9.774 0 18.582 4.117 24.794 10.709 3.715 3.942 10.103 3.942 13.818 0 13.472-14.299 36.151-14.261 49.588 0 3.714 3.942 10.103 3.942 13.818 0l4.698 12.034z" fill="#95db76"/><path d="m368.995 453.174c-.004.006-10.109 14.556-7.752 29.526 18.082-9.766 34.803-21.728 49.789-35.548-13.337-7.842-30.869-5.832-42.037 6.022z" fill="#baee63"/><path d="m134.507 447.211c-.715 12.177-2.278 24.367-3.735 36.559 18.818 9.937 39.083 17.497 60.402 22.277l19.852-70.421z" fill="#1d2e79"/><path d="m250.445 447.211-28.42-14.836-29.549 14.836s-27.638 30.668-1.303 58.835c17.323 3.884 35.333 5.947 53.828 5.947 3.987 0 7.95-.103 11.891-.292-1.294-21.494-5.186-43.013-6.447-64.49z" fill="#2a428b"/><g fill="#1d2e79"><path d="m298.353.006c-5.176-.007-9.378 4.183-9.385 9.359l-.01 7.347 10.192 7.329 8.552-7.304.01-7.347c.008-5.175-4.182-9.377-9.359-9.384z"/><path d="m473.807.006c-5.176-.007-9.378 4.183-9.385 9.359l-.01 7.586 8.238 9.385 10.506-9.359.01-7.586c.008-5.176-4.183-9.378-9.359-9.385z"/></g><path d="m257.219 246.041-21.918-6.477-10.501 6.477-10.104-12.567c-15.542 0-28.896 0-44.438 0l-8.575 15.039-12.031-8.949-21.918 6.477-13.875 52.001 17.03 41.704 56.238 41.432 66.937-41.432 17.462-44.371z" fill="#fe3d97"/><g fill="#ffaa7b"><path d="m123.807 147.602c-2.447 3.11-3.919 7.024-3.919 11.289 0 10.1 8.188 18.288 18.288 18.288h3.576l8.606-39.137z"/><path d="m261.145 147.602-27.787-9.56 9.841 39.137h3.576c10.1 0 18.288-8.188 18.288-18.288.002-4.265-1.471-8.179-3.918-11.289z"/><path d="m192.476 207.875-22.219 13.019v12.581c0 12.271 9.948 22.219 22.219 22.219s22.219-9.948 22.219-22.219v-12.581z"/></g><path d="m183.79 302.223c-7.474 0-13.533-6.059-13.533-13.533v-55.216l-20.605 6.09v44.308c0 14.285-3.611 28.338-10.498 40.853l-8.265 15.021 3.618 107.465h57.969l21.745-88.836z" fill="#2a428b"/><path d="m245.798 324.725c-6.887-12.515-10.498-26.568-10.498-40.853v-44.308l-20.605-6.09v55.216c0 7.474-6.059 13.533-13.533 13.533-6.076 0-11.296 0-17.372 0 0 0-17.277 10-5.015 25.325l8.352 53.63s-25.548 35.136 5.349 66.033h57.969l3.618-107.465z" fill="#3f57a0"/><path d="m214.028 327.548h-43.103c-3.687 0-6.704 3.017-6.704 6.704v34.154c0 7.025 5.748 12.773 12.773 12.773h30.965c7.025 0 12.773-5.748 12.773-12.773v-34.154c0-3.687-3.017-6.704-6.704-6.704z" fill="#1d2e79"/><path d="m219.562 418.574h-54.172c-11.098 0-20.094-8.996-20.094-20.094v-24.023c0-11.097 8.996-20.094 20.094-20.094h54.172c11.098 0 20.094 8.996 20.094 20.094v24.023c0 11.097-8.996 20.094-20.094 20.094z" fill="#e8f8fc"/><path d="m171.914 379.065-16.135-6.644c-1.983-.816-4.063-1.059-6.056-.808-4.941.624-9.957.188-14.505-1.841l-24.119-13.007c-2.653-1.207-3.424-4.636-1.723-7.003l11.421-13.949-6.938-26.438-28.271 4.021-18.358 34.794c-6.16 12.815-.098 28.48 13.646 33.411l40.768 16.509c5.134 1.842 9.332 5.455 12.445 9.934 1.274 1.833 3.067 3.333 5.275 4.242l16.135 6.644c10.963 4.514 23.626-.762 28.14-11.724 4.514-10.964-.762-23.626-11.725-28.141z" fill="#ffaa7b"/><path d="m317.722 348.19-18.228-34.502-27.969-1.812-7.833 23.292 11.885 14.595c1.7 2.368.93 5.796-1.723 7.003l-24.12 13.007c-4.548 2.029-9.564 2.465-14.505 1.841-1.994-.252-4.074-.009-6.056.808l-16.135 6.644c-10.962 4.515-16.238 17.177-11.724 28.14 4.514 10.962 17.177 16.238 28.14 11.724l16.135-6.644c2.208-.909 4.001-2.409 5.275-4.242 3.112-4.479 7.311-8.092 12.445-9.934l40.768-16.509c13.743-4.931 19.805-20.596 13.645-33.411z" fill="#ffaa7b"/><path d="m220.732 314.064c-4.952 0-9.003 4.051-9.003 9.003v33.359c0 4.952 4.051 9.003 9.003 9.003s9.003-4.051 9.003-9.003v-33.359c0-4.952-4.052-9.003-9.003-9.003z" fill="#e8f8fc"/><path d="m385.009 45.458c-7.696 10.865-18.201 32.772 5.478 50.136l28.302.038c8.47.012 16.701-2.807 23.385-8.008l12.588-9.794 12.763-16.83-12.719-15.447z" fill="#3f57a0"/><path d="m304.712 32.816-4.687-8.774-8.125 8.757c-6.893-.009-12.54 5.623-12.549 12.515l-.044 32.277c-.009 6.893 5.623 12.54 12.515 12.549l12.812.018c6.893.009 12.54-5.623 12.55-12.516l.044-32.276c.009-6.893-5.623-12.541-12.516-12.55z" fill="#5071b7"/><path d="m480.167 33.055-4.642-6.718-8.17 6.701c-6.893-.01-12.54 5.623-12.55 12.515l-.044 32.276c-.009 6.893 5.622 12.54 12.515 12.55l12.812.017c6.893.01 12.54-5.622 12.55-12.515l.044-32.276c.01-6.893-5.622-12.54-12.515-12.55z" fill="#5071b7"/><circle cx="412.41" cy="173.88" fill="#ffd402" r="16.459"/><circle cx="423.957" cy="226.835" fill="#ffd402" r="16.459"/><circle cx="359.449" cy="173.88" fill="#fea53d" r="16.459"/><circle cx="347.902" cy="226.835" fill="#fea53d" r="16.459"/><path d="m512 26.389c.007-5.155-4.205-9.378-9.359-9.385l-57.669-.079c-5.155-.007-9.378 4.205-9.385 9.359-.007 5.155 4.205 9.378 9.359 9.385l57.669.079c5.155.007 9.378-4.205 9.385-9.359z" fill="#3f57a0"/><path d="m336.545 26.15c.007-5.155-4.205-9.378-9.359-9.385l-57.669-.079c-5.155-.007-9.378 4.205-9.385 9.359-.007 5.155 4.205 9.378 9.359 9.385l57.669.079c5.155.007 9.378-4.205 9.385-9.359z" fill="#3f57a0"/><path d="m194.525 130.709-52.821 16.893v27.679c0 27.925 22.847 50.772 50.772 50.772 27.925 0 50.772-22.848 50.772-50.772v-27.679z" fill="#ffc7ab"/><path d="m192.476 62.037c-21.123 0-36.8 7.473-45.053 12.586-4.099 2.539-6.972 6.641-7.927 11.367l-1.896 9.384 62.807 15.15z" fill="#b66651"/><path d="m245.456 85.99c-.955-4.726-3.828-8.827-7.927-11.367-8.254-5.113-23.93-12.586-45.053-12.586 0 0-16.149 17.187 0 33.336l28.074 15.15 26.802-15.15z" fill="#ce7867"/><path d="m192.476 95.374h-54.876l-6.121 30.3 74.544 9.552z" fill="#8c3d2f"/><path d="m247.352 95.374h-54.876s-13.586 16.173 4.717 30.3l33.372 10.964 22.908-10.964z" fill="#9e533b"/><path d="m276.373 125.674h-167.793c-6.03 0-10.963 4.934-10.963 10.964 0 6.03 4.934 10.964 10.963 10.964h167.793c6.03 0 10.963-4.934 10.963-10.964 0-6.03-4.934-10.964-10.963-10.964z" fill="#ce7867"/><path d="m127.734 246.042s-26.217 18-44.461 58.129c-1.199 2.637-.997 5.696.516 8.166 4.506 7.354 24.18 22.777 47.1 27.41z" fill="#e51e82"/><path d="m257.219 246.042s26.217 18 44.461 58.129c1.199 2.637.997 5.696-.517 8.166-4.506 7.354-24.18 22.777-47.099 27.41z" fill="#fd77a6"/></g></svg>