<svg id="Capa_1" enable-background="new 0 0 512 512" viewBox="0 0 512 512" xmlns="http://www.w3.org/2000/svg"><g><g><path d="m128.499 306.751c-65.445 0-118.499 53.054-118.499 118.5v32.153h325.259v-32.153c0-65.445-53.054-118.499-118.499-118.499h-88.261z" fill="#d2dcfd"/><path d="m225.168 307.052v92.115h-105.077v-92.115c-15.78 1.107-30.705 5.303-44.18 11.988v138.364h193.436v-138.364c-13.474-6.685-28.399-10.882-44.179-11.988z" fill="#93b2f4"/><path d="m215.127 257.556v49.195l-42.498 50.194-42.497-50.194v-48.371z" fill="#f7b073"/><path d="m91.106 115.218v25.778c-14.08 0-25.493 11.414-25.493 25.493 0 14.08 11.414 25.493 25.493 25.493v5.993c0 45.024 36.499 81.523 81.523 81.523 45.024 0 81.523-36.499 81.523-81.523v-5.993c14.08 0 25.493-11.414 25.493-25.493s-11.414-25.493-25.493-25.493v-25.778z" fill="#fde0be"/><path d="m254.153 115.218v-23.695c0-45.024-36.499-81.523-81.523-81.523-45.024 0-81.523 36.499-81.523 81.523v23.695z" fill="#d46b5c"/><path d="m254.153 140.996v-25.778h-163.047v25.778c-5.193 0-10.02 1.556-14.048 4.222h191.144c-4.029-2.666-8.857-4.222-14.049-4.222z" fill="#f7b073"/><path d="m153.319 47.2c0-12.564 1.966-24.668 5.595-36.028-38.49 6.524-67.808 40.005-67.808 80.352v23.695h83.719c-13.547-19.241-21.506-42.699-21.506-68.019z" fill="#b55348"/><path d="m472 502h-112.165c-16.569 0-30-13.431-30-30v-234.126c0-16.569 13.431-30 30-30h112.165c16.569 0 30 13.431 30 30v234.126c0 16.569-13.431 30-30 30z" fill="#fff"/><path d="m433.826 371.245-17.909 17.908-17.908-17.908c-15.621-15.621-15.621-40.948 0-56.569l17.908-17.909 17.909 17.909c15.621 15.622 15.621 40.948 0 56.569z" fill="#b1d952"/><path d="m376.369 207.874h79.097v44.18h-79.097z" fill="#bc9af4"/></g><g><path d="m225.168 359.044h44.18v20h-44.18z" fill="#6864f7"/><path d="m75.911 359.044h44.18v20h-44.18z" fill="#6864f7"/><path d="m172.597 245.319c-10.232 0-19.838-4.529-26.354-12.426-3.516-4.26-2.912-10.562 1.348-14.078 4.262-3.515 10.562-2.912 14.078 1.348 2.704 3.276 6.688 5.156 10.929 5.156 4.265 0 8.262-1.896 10.968-5.204 3.498-4.273 9.799-4.903 14.072-1.406 4.274 3.498 4.903 9.798 1.406 14.072-6.522 7.968-16.16 12.538-26.447 12.538z" fill="#f7b073"/><path d="m455.466 467.82h-79.097c-5.522 0-10-4.477-10-10s4.478-10 10-10h79.097c5.522 0 10 4.477 10 10s-4.478 10-10 10z" fill="#6864f7"/><g fill="#fdcb50"><path d="m429.946 178.599c-2.56 0-5.118-.976-7.071-2.929-3.837-3.836-10.08-3.835-13.915 0-3.906 3.905-10.236 3.906-14.143 0-3.905-3.905-3.905-10.237 0-14.142 11.635-11.633 30.565-11.635 42.2 0 3.905 3.905 3.905 10.237 0 14.142-1.952 1.953-4.511 2.929-7.071 2.929z"/><path d="m458.003 150.542c-2.56 0-5.118-.976-7.071-2.929-19.308-19.308-50.723-19.307-70.028 0-3.906 3.905-10.236 3.905-14.143 0-3.905-3.905-3.905-10.237 0-14.143 27.104-27.104 71.207-27.105 98.313 0 3.905 3.905 3.905 10.237 0 14.143-1.953 1.953-4.512 2.929-7.071 2.929z"/><path d="m486.06 122.485c-2.56 0-5.118-.976-7.071-2.929-34.777-34.777-91.365-34.779-126.143 0-3.907 3.905-10.237 3.906-14.143 0-3.905-3.905-3.905-10.237 0-14.142 42.578-42.575 111.854-42.574 154.428 0 3.905 3.905 3.905 10.237 0 14.143-1.953 1.952-4.512 2.928-7.071 2.928z"/></g><path d="m422.988 289.697c-3.906-3.905-10.236-3.904-14.143 0l-17.908 17.908c-9.443 9.444-14.645 22-14.645 35.356 0 13.355 5.201 25.912 14.645 35.355l14.979 14.979v20.344c0 5.523 4.478 10 10 10s10-4.477 10-10v-20.344l14.98-14.98c9.443-9.444 14.645-22 14.645-35.355 0-13.356-5.201-25.912-14.645-35.356zm3.767 74.477-10.838 10.837-10.837-10.837c-5.667-5.666-8.787-13.2-8.787-21.213 0-8.014 3.12-15.547 8.787-21.213l10.837-10.837 10.838 10.837c5.667 5.666 8.787 13.2 8.787 21.213 0 8.014-3.12 15.547-8.787 21.213z" fill="#052a75"/><path d="m472 197.874h-112.165c-22.056 0-40 17.944-40 40v110.748c-7.441-10.003-16.303-18.967-26.322-26.439-20.066-14.965-43.56-23.56-68.386-25.142v-24.14c22.923-16.11 38.155-42.457 38.989-72.342 14.736-4.317 25.53-17.957 25.53-34.07 0-16.1-10.776-29.73-25.494-34.059v-7.212h42.243c5.522 0 10-4.477 10-10s-4.478-10-10-10h-42.243v-13.695c0-50.466-41.057-91.523-91.523-91.523s-91.524 41.057-91.524 91.523v13.695h-42.242c-5.522 0-10 4.477-10 10s4.478 10 10 10h42.242v7.212c-14.718 4.329-25.493 17.959-25.493 34.059 0 16.113 10.793 29.752 25.529 34.07.834 29.885 16.067 56.233 38.99 72.343v24.129c-66.968 4.326-120.131 60.177-120.131 128.219v32.153c0 5.523 4.478 10 10 10h309.835v4.597c0 22.056 17.944 40 40 40h112.165c22.056 0 40-17.944 40-40v-234.126c0-22.056-17.944-40-40-40zm-307.003 165.533c1.9 2.244 4.691 3.539 7.632 3.539s5.732-1.294 7.632-3.538l34.907-41.229v66.988h-85.077v-66.989zm-24.865-60.32v-19.553c10.104 3.851 21.058 5.965 32.497 5.965 11.44 0 22.394-2.114 32.498-5.965v19.553l-32.498 38.383zm-20.041 106.08h105.077c5.522 0 10-4.477 10-10v-80.839c8.34 1.415 16.44 3.789 24.18 7.096v121.98h-173.437v-121.934c7.651-3.278 15.75-5.701 24.18-7.148v80.845c0 5.523 4.477 10 10 10zm-18.986-317.644c0-39.438 32.085-71.523 71.524-71.523s71.523 32.085 71.523 71.523v13.695h-143.047zm0 106.452v-5.993c0-5.523-4.478-10-10-10-8.543 0-15.493-6.95-15.493-15.493s6.95-15.493 15.493-15.493c5.522 0 10-4.477 10-10v-15.778h143.047v15.778c0 5.523 4.478 10 10 10 8.544 0 15.494 6.95 15.494 15.493s-6.95 15.493-15.494 15.493c-5.522 0-10 4.477-10 10v5.993c0 39.438-32.085 71.523-71.523 71.523s-71.524-32.085-71.524-71.523zm-81.105 227.275c0-36.534 18.154-68.903 45.911-88.573v110.727h-45.911zm299.835 22.154h-40.487v-110.77c.738.523 1.48 1.04 2.208 1.582 17.826 13.294 31.366 32.119 38.279 53.12zm172.165 24.596c0 11.028-8.972 20-20 20h-112.165c-11.028 0-20-8.972-20-20v-234.126c0-11.028 8.972-20 20-20h112.165c11.028 0 20 8.972 20 20z" fill="#052a75"/></g></g><g/><g/><g/><g/><g/><g/><g/><g/><g/><g/><g/><g/><g/><g/><g/></svg>