<svg viewBox="0 0 512 512" xmlns="http://www.w3.org/2000/svg" xmlns:xlink="http://www.w3.org/1999/xlink"><linearGradient id="linear-gradient" gradientUnits="userSpaceOnUse" x1="74.98" x2="437.02" y1="74.98" y2="437.02"><stop offset="0" stop-color="#67ce87"/><stop offset="1" stop-color="#49b766"/></linearGradient><linearGradient id="linear-gradient-2" gradientUnits="userSpaceOnUse" x1="123.13" x2="417.45" y1="162.26" y2="456.58"><stop offset="0" stop-color="#3c9956"/><stop offset="1" stop-color="#3c9956" stop-opacity="0"/></linearGradient><g id="Layer_2" data-name="Layer 2"><g id="Layer_1_copy_7" data-name="Layer 1 copy 7"><g id="_115" data-name="115"><circle id="background" cx="256" cy="256" fill="url(#linear-gradient)" r="256"/><path d="m496.22 344.65c-33.29 90.22-116 156.54-215.25 166.14l-179.29-179.29-2.33-10.87 18.3-44.24 31.29-37.15 46.63-22.05-26.18-26.19-13.39-38.38 11.67-34.87 25.6-21.75 36.17-3.85 26.56 12.28z" fill="url(#linear-gradient-2)"/><g fill="#fff"><path d="m419.18 300.23h-7.3a82.53 82.53 0 0 0 -6.6-15.91l5.17-5.17a14.82 14.82 0 0 0 0-20.95l-12.65-12.65a14.82 14.82 0 0 0 -21 0l-5.16 5.16a83.22 83.22 0 0 0 -15.92-6.59v-7.3a14.83 14.83 0 0 0 -14.78-14.82h-17.89a14.83 14.83 0 0 0 -14.82 14.82v7.3q-3.39 1-6.69 2.3c-1.88-1.94-3.82-3.82-5.8-5.63-15-13.66-31.9-23-50-27.81a66.63 66.63 0 1 0 -56.37 0c-18.06 4.76-35 14.15-50 27.81-21.66 19.77-37.63 47.72-45 78.69a17.88 17.88 0 0 0 3.23 15.07 150.16 150.16 0 0 0 119.88 59.1 152.69 152.69 0 0 0 35.63-4.19l.33.34 12.65 12.65a14.84 14.84 0 0 0 21 0l5.16-5.17a82.53 82.53 0 0 0 15.91 6.6v7.3a14.84 14.84 0 0 0 14.89 14.82h17.89a14.84 14.84 0 0 0 14.82-14.82v-7.3a82.88 82.88 0 0 0 15.92-6.6l5.16 5.17a14.84 14.84 0 0 0 21 0l12.65-12.65a14.84 14.84 0 0 0 0-21l-5.17-5.16a82.88 82.88 0 0 0 6.6-15.92h7.3a14.84 14.84 0 0 0 14.78-14.78v-17.89a14.84 14.84 0 0 0 -14.82-14.82zm-258.18-147.61a56.63 56.63 0 1 1 56.62 56.62 56.68 56.68 0 0 1 -56.62-56.62zm56.62 231a140.24 140.24 0 0 1 -111.95-55.19 7.94 7.94 0 0 1 -1.43-6.67c14.3-60.33 60.92-102.46 113.38-102.46 23.22 0 45.3 8.25 63.93 22.69a14.84 14.84 0 0 0 -15.32 3.53l-12.68 12.68a14.84 14.84 0 0 0 0 21l5.16 5.16a83.13 83.13 0 0 0 -6.59 15.91h-7.3a14.83 14.83 0 0 0 -14.82 14.78v17.89a14.83 14.83 0 0 0 14.82 14.82h7.3a83.49 83.49 0 0 0 6.59 15.92l-5.16 5.16a14.72 14.72 0 0 0 -4.3 11.27 142.12 142.12 0 0 1 -31.66 3.54zm206.38-50.68a4.82 4.82 0 0 1 -4.82 4.82h-11.13a5 5 0 0 0 -4.85 3.81 73 73 0 0 1 -8.43 20.35 5 5 0 0 0 .74 6.12l7.87 7.87a4.83 4.83 0 0 1 0 6.82l-12.65 12.65a4.83 4.83 0 0 1 -6.82 0l-7.91-7.87a5 5 0 0 0 -6.12-.74 73 73 0 0 1 -20.35 8.43 5 5 0 0 0 -3.81 4.85v11.13a4.82 4.82 0 0 1 -4.82 4.82h-17.85a4.83 4.83 0 0 1 -4.82-4.82v-11.13a5 5 0 0 0 -3.8-4.85 72.87 72.87 0 0 1 -20.35-8.43 5 5 0 0 0 -6.13.74l-7.87 7.87a4.82 4.82 0 0 1 -6.81 0l-9-9-3.63-3.63a4.83 4.83 0 0 1 -1-5.41 4.78 4.78 0 0 1 1-1.41l7.87-7.87a5 5 0 0 0 .74-6.12 72.69 72.69 0 0 1 -8.43-20.35 5 5 0 0 0 -4.86-3.81h-11.14a4.82 4.82 0 0 1 -4.82-4.82v-17.91a4.83 4.83 0 0 1 4.82-4.82h11.12a5 5 0 0 0 4.86-3.8 72.57 72.57 0 0 1 8.43-20.35 5 5 0 0 0 -.74-6.13l-7.87-7.87a4.82 4.82 0 0 1 0-6.81l12.65-12.65a4.82 4.82 0 0 1 6.81 0l7.87 7.87a5 5 0 0 0 6.13.74q2.4-1.46 4.91-2.72a71.08 71.08 0 0 1 9.75-4.06q2.81-.94 5.69-1.65a5 5 0 0 0 3.8-4.86v-11.12a4.83 4.83 0 0 1 4.82-4.82h17.89a4.82 4.82 0 0 1 4.82 4.82v11.12a5 5 0 0 0 3.81 4.86 72.57 72.57 0 0 1 20.35 8.43 5 5 0 0 0 6.12-.74l7.87-7.87a4.83 4.83 0 0 1 6.82 0l12.65 12.65a4.82 4.82 0 0 1 0 6.81l-7.87 7.92a5 5 0 0 0 -.74 6.13 72.87 72.87 0 0 1 8.43 20.35 5 5 0 0 0 4.85 3.8h11.13a4.83 4.83 0 0 1 4.82 4.82z"/><path d="m332 288.32q-1 0-2 .06a35.35 35.35 0 0 0 -10.06 2 35.69 35.69 0 1 0 12.07-2.1zm0 61.36a25.68 25.68 0 0 1 0-51.36c.75 0 1.48 0 2.21.1a25.68 25.68 0 0 1 -2.21 51.26z"/></g></g></g></g></svg>