<svg id="Layer_36" viewBox="0 0 50 50" xmlns="http://www.w3.org/2000/svg" data-name="Layer 36"><g><path d="m18.5227255 15.60055217-8.59619141-5.33886719c-.116136-.072129-.25012507-.11035156-.38683704-.11035156h-3.00778216c-.8261715 0-1.49591584-.66974433-1.49591584-1.49591584v-1.00816832c0-.8261715.66974433-1.49591584 1.49591584-1.49591584h3.0061555c.88326754 0 1.74894672.24692262 2.49930355.71289062l8.59570312 5.33789062-2.11035156 3.3984375z" fill="#47c764"/><path d="m31.4772745 15.60055217 8.59619141-5.33886719c.116136-.072129.25012507-.11035156.38683704-.11035156h3.00778216c.8261715 0 1.49591584-.66974433 1.49591584-1.49591584v-1.00816832c0-.8261715-.66974433-1.49591584-1.49591584-1.49591584h-3.0061555c-.88326754 0-1.74894672.24692262-2.49930355.71289062l-8.59570313 5.33789062 2.11035156 3.3984375z" fill="#47c764"/><path d="m34.10998535 11.4379714v4.67724869c0 .91755244-.74382322 1.66137565-1.66137565 1.66137565h-2.98858772c-1.09002686 1.22998047-2.69000244 2-4.46002197 2s-3.36999512-.77001953-4.46002197-2h-2.98858772c-.91755244 0-1.66137565-.74382322-1.66137565-1.66137565v-4.67724869c0-.91755244.74382322-1.66137565 1.66137565-1.66137565h2.98858772c1.09002686-1.2300415 2.69000244-2 4.46002197-2s3.36999512.7699585 4.46002197 2h2.98858772c.91755244 0 1.66137565.74382322 1.66137565 1.66137565z" fill="#fff"/><g fill="#98fdae"><circle cx="25" cy="13.989" r="2"/><rect height="5.266" rx="1.16" width="4" x="23" y="20.213"/><g><g><path d="m41.95101009 38.42218713c-1.55298291.8966141-3.38168054.89546305-4.87768713.16503342.11170201-1.6672589 1.02503262-3.25157181 2.57801553-4.14818591s3.3751993-.89166823 4.87497781-.15479701c-.11547394 1.66081732-1.02882744 3.24509057-2.57530621 4.1379495z"/><path d="m32.18115807 34.44199664c-1.55298291-.8966141-3.38168054-.89546305-4.87768713-.16503342.11170201 1.6672589 1.02503262 3.25157181 2.57801553 4.14818591s3.3751993.89166823 4.87497781.15479701c-.11547394-1.66081732-1.02882744-3.24509057-2.57530621-4.1379495z"/><path d="m37.70212766 30.19140923c-.00000068-1.39364181-.71137858-2.62399534-1.78431728-3.34704571-1.07873919.72305142-1.79015149 1.95340565-1.79015081 3.34704746s.71141417 2.61815855 1.79015407 3.3412445c1.07293799-.72308701 1.78431469-1.95344124 1.78431401-3.34124625z"/></g><g><path d="m20.12122285 38.42218713c-1.55298291.8966141-3.38168054.89546305-4.87768713.16503342.11170201-1.6672589 1.02503262-3.25157181 2.57801553-4.14818591s3.3751993-.89166823 4.87497781-.15479701c-.11547394 1.66081732-1.02882744 3.24509057-2.57530621 4.1379495z"/><path d="m10.35137084 34.44199664c-1.55298291-.8966141-3.38168054-.89546305-4.87768713-.16503342.11170201 1.6672589 1.02503262 3.25157181 2.57801553 4.14818591s3.3751993.89166823 4.87497781.15479701c-.11547394-1.66081732-1.02882744-3.24509057-2.57530621-4.1379495z"/><path d="m15.87234043 30.19140923c-.00000068-1.39364181-.71137858-2.62399534-1.78431728-3.34704571-1.07873919.72305142-1.79015149 1.95340565-1.79015081 3.34704746s.71141417 2.61815855 1.79015407 3.3412445c1.07293799-.72308701 1.78431469-1.95344124 1.78431401-3.34124625z"/></g></g></g><path d="m46.56914894 47.5h-43.13829788c-.51409485 0-.93085106-.41675622-.93085106-.93085106v-2.13829787c0-.51409485.41675622-.93085106.93085106-.93085106h17.49745052c.42508454 0 .84581559-.08560851 1.23710054-.25171978l1.36190447-.5781661c.91048456-.38652587 1.94097542-.37550757 2.84298708.03039802l1.15699907.52065002c.40844168.18379891.85123524.27883784 1.29912657.27883784h17.74272962c.51409485 0 .93085106.41675622.93085106.93085106v2.13829787c0 .51409485-.41675622.93085106-.93085106.93085106z" fill="#47c764"/></g><path d="m22.61962891 7.9661355c0-.41015625.34033203-.75.75-.75.42041016 0 .75.33984375.75.75 0 .41992188-.32958984.75-.75.75-.40966797 0-.75-.33007812-.75-.75zm25.63037109 36.47070312v2.13867188c0 .92675781-.75390625 1.68066406-1.68066406 1.68066406h-43.13867188c-.92675781 0-1.68066406-.75390625-1.68066406-1.68066406v-2.13867188c0-.92675781.75390625-1.68066406 1.68066406-1.68066406h9.89575195c-.01916504-1.11425781-.28924561-2.20727539-.77307129-3.20892334-.62573242.21405029-1.27520752.32415771-1.9239502.32415771-1.02246094 0-2.04101562-.26464844-2.95263672-.79101562-1.71533203-.99023438-2.81835938-2.76464844-2.95166016-4.74707031-.02001953-.30371094.14550781-.58984375.41943359-.72363281 1.78320312-.87207031 3.86962891-.79980469 5.58203125.18945312 1.23181152.71112061 2.14123535 1.8326416 2.60839844 3.14318848v-3.0368042c-1.12286377-.90374756-1.78710938-2.25732422-1.78710938-3.70794678 0-1.59570312.79345703-3.07910156 2.12255859-3.96972656.25390625-.16894531.58447266-.16796875.83642578.00097656 1.32470703.89160156 2.11572266 2.37597656 2.11572266 3.96875 0 1.45147705-.66479492 2.80706787-1.78759766 3.71148682v3.03320312c.46685791-1.31066895 1.37695312-2.43322754 2.61181641-3.14605713 1.70996094-.98828125 3.79589844-1.05566406 5.58007812-.17871094.2734375.13378906.43896484.42089844.41748047.72460938-.13720703 1.97851562-1.23925781 3.74902344-2.94824219 4.73535156-.91601562.52929688-1.93945312.79492188-2.96582031.79492188-.6463623 0-1.29309082-.10858154-1.91571045-.32037354-.48266602 1.00036621-.75189209 2.0916748-.77105713 3.2041626h6.0847168c.32568359 0 .64355469-.06445312.94433594-.19238281l1.36181641-.578125c1.09960938-.46679688 2.35400391-.45214844 3.44335938.03613281l1.15722656.52148438c.31347656.14160156.64648438.21289062.99169922.21289062h6.32977295c-.01916504-1.11407471-.2890625-2.20703125-.7734375-3.2088623-.62554932.21411133-1.27520752.32409668-1.92352295.32409668-1.02246094 0-2.04101562-.26464844-2.953125-.79101562-1.71533203-.99023438-2.81885098-2.76464844-2.95117188-4.74707031-.02001953-.30371094.14550781-.58984375.41943359-.72363281 1.78271484-.87207031 3.86962891-.80078125 5.58154297.18945312 1.2322998.71124268 2.14190674 1.83331299 2.60888672 3.14404297v-3.03765869c-1.1229248-.90368652-1.78759766-2.25732422-1.78759766-3.70794678 0-1.59570312.79394531-3.07910156 2.12304688-3.96972656.25341797-.16894531.58398438-.16796875.83642578.00097656 1.32470703.89257812 2.11523438 2.37597656 2.11523438 3.96875 0 1.45056152-.66442871 2.80609131-1.78710938 3.71124268v3.03216553c.46697998-1.31005859 1.37689209-2.43212891 2.61132812-3.14477539 1.70898438-.98828125 3.79589844-1.05566406 5.58056641-.17871094.2734375.13378906.43896484.42089844.41748047.72460938-.13769531 1.97949219-1.23974609 3.74902344-2.94824219 4.73535156-.91650391.52929688-1.93994141.79492188-2.96630859.79492188-.64624023 0-1.29278564-.10906982-1.91534424-.32067871-.48260498 1-.75164795 2.09106445-.77081299 3.20446777h9.89562988c.92675781 0 1.68066406.75390625 1.68066406 1.68066406zm-10.36279297-6.31542969c1.21679688.42773438 2.56152344.30859375 3.68896484-.34277344 1.12402344-.6484375 1.89648438-1.75292969 2.13476562-3.01855469-1.21630859-.43164062-2.55957031-.31445312-3.68408203.33496094-1.12939453.65136719-1.90332031 1.75878906-2.13964844 3.02636719zm-3.94580078-.00488281c-.23828125-1.265625-1.01123047-2.36914062-2.13525391-3.01855469h-.00048828c-1.12744141-.65234375-2.47314453-.76953125-3.68798828-.34277344.23583984 1.26757812 1.00976562 2.37402344 2.13867188 3.02636719 1.12548828.65039062 2.46875.76464844 3.68505859.33496094zm-17.88378906.00488281c1.21533203.42675781 2.56054688.30859375 3.68847656-.34277344 1.12402344-.64941406 1.89697266-1.75292969 2.13525391-3.01855469-1.21679688-.43164062-2.56005859-.31445312-3.68408203.33496094-1.12939453.65136719-1.90332031 1.75878906-2.13964844 3.02636719zm-3.94628906-.00488281c-.23828125-1.265625-1.01074219-2.37011719-2.13476562-3.01855469-1.12744141-.65136719-2.47363281-.76953125-3.68896484-.34277344.23632812 1.26757812 1.01025391 2.375 2.13916016 3.02636719 1.12451172.64941406 2.46923828.76464844 3.68457031.33496094zm23.80517578-5.53320312c.65625-.61523438 1.03564453-1.47558594 1.03564453-2.38574219 0-.9140625-.37939453-1.77539062-1.03564453-2.39160156-.65820312.61523438-1.0390625 1.4765625-1.0390625 2.39160156 0 .91113281.38085938 1.77148438 1.0390625 2.38574219zm-21.88061523-.05847168c.01708984-.00115967.03167725-.0098877.04907227-.0098877.01849365 0 .03399658.00921631.05218506.01055908.621521-.61114502.9854126-1.44384766.9854126-2.32794189 0-.9140625-.37988281-1.77539062-1.03564453-2.39160156-.65820312.61523438-1.0390625 1.4765625-1.0390625 2.39160156 0 .88470459.36462402 1.71710205.98803711 2.32727051zm32.71411133 11.9119873c0-.09960938-.08105469-.18066406-.18066406-.18066406h-17.74267578c-.55957031 0-1.10058594-.11621094-1.60839844-.34570312l-1.15576503-.52050781c-.71044591-.31835938-1.52782872-.32714844-2.24218419-.0234375l-1.36181641.578125c-.48779297.20703125-1.00244141.31152344-1.53027344.31152344h-17.4975586c-.09960938 0-.18066406.08105469-.18066406.18066406v2.13867188c0 .09960938.08105469.18066406.18066406.18066406h43.13867188c.09960938 0 .18066406-.08105469.18066406-.18066406v-2.13867188zm-24.50000001-30.65429687c0-1.51660156 1.23339844-2.75 2.75-2.75s2.75 1.23339844 2.75 2.75-1.23339844 2.75-2.75 2.75-2.75-1.23339844-2.75-2.75zm1.5 0c0 .68945312.56054688 1.25 1.25 1.25s1.25-.56054688 1.25-1.25-.56054688-1.25-1.25-1.25-1.25.56054688-1.25 1.25zm-21.25-11.27624512c1.87792969-.85137939 4.00793457-.98266602 5.97497559-.42944336 1.96832275-.55645752 4.10125732-.41662598 5.98248291.42932129-1.63287354.73425293-3.45611572.93597412-5.19671631.61499023v2.28637695h.27734375c1.02392578 0 2.02490234.28515625 2.89501953.82519531l4.60150146 2.85864258c.16687012-.03668213.33892822-.05883789.5166626-.05883789h2.66308594c.07714844-.078125.15576172-.15429688.23632812-.22851562.3046875-.28027344.77978516-.26171875 1.05957031.04394531.28076172.3046875.26074219.77929688-.04394531 1.05957031-.12792969.1171875-.24951172.2421875-.36474609.37207031-.14257812.16113281-.34667969.25292969-.56152344.25292969h-2.98876953c-.50244141 0-.91113281.40917969-.91113281.91113281v4.67773438c0 .50195312.40869141.91113281.91113281.91113281h2.03009033c-.21136475-1.28430176-.03161621-2.57434082.47613479-3.64666295-.09699319.95119962.03623917 1.95185135.40587067 2.83520027.38896633.92955547 1.10143397 1.64630898 1.97386574 2.13865307.77892644.43957573 1.66841447.67280961 2.56276895.67280961 1.49414062 0 2.91503905-.63671875 3.89843748-1.74707031.14257812-.16113281.34667969-.25292969.56152344-.25292969h2.98876953c.50244141 0 .91113281-.40917969.91113281-.91113281v-4.67773438c0-.50195312-.40869141-.91113281-.91113281-.91113281h-1.98138428c.23577881 1.31439209.05957031 2.64025879-.46020508 3.73791504.02214549-.15189174.0267334-.36022949.02868652-.49249268.00238037-.1618042-.00213623-.3237915-.0135498-.48522949-.01269531-.17926025-.03430176-.35778809-.0645752-.53485107-.18334961-1.07110596-.70025635-2.25518799-1.5423584-2.9730835-.24108887-.20550537-.50610352-.38195801-.77911377-.54180908-.46044922-.26965332-.96282959-.46655273-1.48339844-.58349609-.40429688-.09082031-.65820312-.4921875-.56738281-.89648438.09082031-.40332031.49169922-.65820312.89648438-.56640625 1.26708984.28515625 2.40234375.91699219 3.30371094 1.8359375h2.66308594c.17773438 0 .34991455.02215576.51678467.05883789l4.60137939-2.85766602c.87011719-.54101562 1.87109375-.82617188 2.89501953-.82617188h.27734375v-2.28649902c-1.74053955.32104492-3.56378174.11938477-5.19671631-.61486816 1.88122559-.8460083 4.01428223-.98577881 5.98278809-.42938232 1.96691895-.55310059 4.09674072-.421875 5.97467041.42926025-1.65222168.7489624-3.50048828.94219971-5.26074219.60284424v2.29864502h1.22900391c1.23828125 0 2.24560547 1.0078125 2.24560547 2.24609375v1.0078125c0 1.23828125-1.00732422 2.24609375-2.24560547 2.24609375h-3.0078125l-5.60058594 3.48046875v1.73339844c0 1.32910156-1.08154297 2.41113281-2.41113281 2.41113281h-2.66308594c-.70935059.72149658-1.57232666 1.25915527-2.51269531 1.59667969.29321289.33569336.47705078.76934814.47705078 1.24902344v.72363281h9.93066406c.4140625 0 .75.3359375.75.75s-.3359375.75-.75.75h-1.015625v.89355469c0 .4140625-.3359375.75-.75.75s-.75-.3359375-.75-.75v-.89355469h-7.41503906v.72363281c0 1.05273438-.85644531 1.90917969-1.90966797 1.90917969h-1.68066406c-1.05322266 0-1.90966797-.85644531-1.90966797-1.90917969v-.72363281h-7.41503906v.89355469c0 .4140625-.3359375.75-.75.75s-.75-.3359375-.75-.75v-.89355469h-1.015625c-.4140625 0-.75-.3359375-.75-.75s.3359375-.75.75-.75h9.93066406v-.72363281c0-.47967529.18383789-.91333008.47705078-1.24902344-.94036865-.33752441-1.80334473-.87518311-2.51269531-1.59667969h-2.66308594c-1.32958984 0-2.41113281-1.08203125-2.41113281-2.41113281v-1.73291016l-5.60888672-3.48388672-2.99951172.00292969c-1.23828125 0-2.24560547-1.0078125-2.24560547-2.24609375v-1.0078125c0-1.23828125 1.00732422-2.24609375 2.24560547-2.24609375h1.22900391v-2.29864502c-1.76031494.3394165-3.60852051.1461792-5.26074219-.6026001zm31.85980225 7.48406982c.3092041.40539551.50006104.90539551.50006104 1.45330811v1.17974854l4.81787109-2.99224854c.234375-.14648438.50537109-.22363281.78271484-.22363281h3.0078125c.41113281 0 .74560547-.33496094.74560547-.74609375v-1.0078125c0-.41113281-.33447266-.74609375-.74560547-.74609375h-3.00634766c-.74414062 0-1.47167969.20800781-2.10400391.60058594l-3.99810791 2.48223877zm-10.60980225 14.33514404c0 .22558594.18359375.40917969.40966797.40917969h1.68066406c.22607422 0 .40966797-.18359375.40966797-.40917969v-2.94726562c0-.22558594-.18359375-.40917969-.40966797-.40917969h-1.68066406c-.22607422 0-.40966797.18359375-.40966797.40917969zm-17.21826172-17.41796874c-.41113281 0-.74560547.33496094-.74560547.74609375v1.0078125c0 .41113281.33447266.74609375.74560547.74609375h3.0078125c.27734375 0 .54833984.07714844.78320312.22363281l4.81738281 2.99255371v-1.18005371c0-.54797363.19091797-1.04803467.50018311-1.45349121l-3.99822998-2.48303223c-.63232422-.39160156-1.35986328-.59960938-2.10400391-.59960938h-3.00634766z" fill="#1f7533"/></svg>