<svg id="Capa_1" enable-background="new 0 0 512 512" viewBox="0 0 512 512" xmlns="http://www.w3.org/2000/svg"><g><g><path d="m256 502-246-168.603 246-168.603 246 168.603z" fill="#fdcb50"/><path d="m156.006 278.497c0-16.799 1.881-33.158 5.424-48.887l-151.43 103.787 246 168.603 31.008-21.252c-77.214-34.62-131.002-112.151-131.002-202.251z" fill="#fd8f01"/><path d="m225.878 10h-185.756c-16.636 0-30.122 13.486-30.122 30.122v160.152c0 16.636 13.486 30.122 30.122 30.122h61.638l31.24 31.24 31.24-31.24h61.638c16.636 0 30.122-13.486 30.122-30.122v-160.152c0-16.636-13.486-30.122-30.122-30.122z" fill="#fff"/><path d="m114.812 101.729h-17.549c-16.569 0-30-13.431-30-30v-17.549h17.549c16.569 0 30 13.431 30 30z" fill="#b1d952"/><path d="m151.188 101.729h17.549c16.569 0 30-13.431 30-30v-17.549h-17.549c-16.569 0-30 13.431-30 30z" fill="#b1d952"/><path d="m100.21 186.21h65.58v-10.041c0-18.109-14.681-32.79-32.79-32.79s-32.79 14.681-32.79 32.79z" fill="#d46b5c"/><path d="m472 142.539h-141.82c-16.569 0-30-13.431-30-30v-72.539c0-16.569 13.431-30 30-30h141.82c16.569 0 30 13.431 30 30v72.539c0 16.568-13.431 30-30 30z" fill="#67ccd1"/></g><g><path d="m507.653 325.148-241.653-165.623v-119.402c0-22.124-17.999-40.123-40.123-40.123h-185.754c-22.124 0-40.123 17.999-40.123 40.123v160.152c0 22.124 17.999 40.123 40.123 40.123h57.496l12.357 12.357-105.629 72.393c-2.721 1.865-4.347 4.951-4.347 8.249s1.626 6.384 4.347 8.249l246 168.603c1.703 1.167 3.678 1.751 5.653 1.751s3.95-.584 5.653-1.751l246-168.603c2.721-1.864 4.347-4.951 4.347-8.249s-1.626-6.384-4.347-8.249zm-252.928 54.056-65.56-44.933 65.56-44.933 65.56 44.933zm83.249-32.81 63.688 43.65-65.56 44.933-63.688-43.65zm-100.937 44.933-62.413 42.777-65.559-44.933 62.413-42.776zm35.377-114.113 64.962-44.524 65.56 44.933-64.962 44.524zm47.274-56.646-64.962 44.523-36.03-24.694h7.182c22.124 0 40.123-17.999 40.123-40.123v-16.503zm-217.928-.171h-61.637c-11.096 0-20.123-9.027-20.123-20.123v-160.151c0-11.096 9.027-20.123 20.123-20.123h185.755c11.095 0 20.122 9.027 20.122 20.123v160.152c0 11.096-9.027 20.123-20.123 20.123h-61.637c-2.652 0-5.196 1.054-7.071 2.929l-24.169 24.168-24.168-24.169c-1.876-1.875-4.419-2.929-7.072-2.929zm24.169 48.311c1.953 1.953 4.512 2.929 7.071 2.929s5.119-.976 7.071-2.929l28.311-28.311h14.937l53.718 36.817-65.56 44.933-63.688-43.65 16.571-11.357zm-35.827 21.913 63.688 43.65-62.413 42.777-63.688-43.65zm165.898 199.256-63.688-43.65 62.413-42.777 63.688 43.65zm163.349-111.956-63.688-43.65 64.962-44.524 63.688 43.65z" fill="#052a75"/><path d="m175.79 186.21v-10.041c0-20.001-13.796-36.835-32.37-41.501 1.221-8.379 5.084-16.113 11.18-22.208l.731-.731h13.406c22.056 0 40-17.944 40-40v-17.549c0-5.523-4.477-10-10-10h-17.549c-22.056 0-40 17.944-40 40v13.406l-.731.731c-2.806 2.806-5.298 5.844-7.458 9.068-2.16-3.225-4.651-6.262-7.458-9.068l-.731-.731v-13.406c0-22.056-17.944-40-40-40h-17.547c-5.523 0-10 4.477-10 10v17.549c0 22.056 17.944 40 40 40h13.406l.731.731c6.096 6.096 9.958 13.83 11.18 22.208-18.574 4.666-32.37 21.5-32.37 41.501v10.041c0 5.523 4.477 10 10 10h65.58c5.523 0 10-4.477 10-10zm-14.602-102.03c0-11.028 8.972-20 20-20h7.549v7.549c0 11.028-8.972 20-20 20h-7.549zm-56.376 7.549h-7.549c-11.028 0-20-8.972-20-20v-7.549h7.549c11.028 0 20 8.972 20 20zm50.978 84.481h-45.58v-.041c0-12.566 10.224-22.79 22.79-22.79s22.79 10.224 22.79 22.79z" fill="#052a75"/><path d="m472 0h-141.82c-22.056 0-40 17.944-40 40v72.539c0 22.056 17.944 40 40 40h141.82c22.056 0 40-17.944 40-40v-72.539c0-22.056-17.944-40-40-40zm20 112.539c0 11.028-8.972 20-20 20h-141.82c-11.028 0-20-8.972-20-20v-72.539c0-11.028 8.972-20 20-20h141.82c11.028 0 20 8.972 20 20z" fill="#052a75"/><path d="m420.624 343.397c-5.523 0-10-4.477-10-10v-146.679c0-5.523 4.477-10 10-10s10 4.477 10 10v146.679c0 5.523-4.477 10-10 10z" fill="#6864f7"/><g fill="#fff"><path d="m344.36 64.18c-6.892.19-12.073-7.534-9.23-13.83 3.224-8.136 15.236-8.137 18.46 0 2.837 6.297-2.335 14.021-9.23 13.83z"/><path d="m344.36 108.36c-6.892.19-12.073-7.534-9.23-13.83 3.227-8.142 15.234-8.143 18.46 0 2.837 6.297-2.335 14.021-9.23 13.83z"/><path d="m437.739 64.18h-49.2c-5.523 0-10-4.477-10-10s4.477-10 10-10h49.2c5.523 0 10 4.477 10 10s-4.477 10-10 10z"/><path d="m457.82 108.359h-69.282c-5.523 0-10-4.477-10-10s4.477-10 10-10h69.282c5.523 0 10 4.477 10 10s-4.477 10-10 10z"/></g></g></g><g/><g/><g/><g/><g/><g/><g/><g/><g/><g/><g/><g/><g/><g/><g/></svg>