<svg id="Layer_1" viewBox="0 0 512 512" xmlns="http://www.w3.org/2000/svg" data-name="Layer 1"><path d="m399.065 294.97a166.909 166.909 0 0 0 20.808-50.3l18.215-4.605 22.207-5.595a207.119 207.119 0 0 0 0-56.48l-22.207-5.6-18.215-4.575a166.588 166.588 0 0 0 -20.808-50.3l9.617-16.117 11.745-19.672a208.922 208.922 0 0 0 -39.927-39.926l-19.671 11.746-16.117 9.617a167.476 167.476 0 0 0 -50.272-20.808l-4.605-18.215-5.595-22.207a208.319 208.319 0 0 0 -56.48 0l-5.595 22.207-4.6 18.215a166.909 166.909 0 0 0 -50.3 20.808l-16.087-9.617-19.678-11.746a206.777 206.777 0 0 0 -39.927 39.927l11.745 19.673 9.617 16.117a166.588 166.588 0 0 0 -20.808 50.3l-18.215 4.575-22.207 5.6a205.932 205.932 0 0 0 0 56.48l22.207 5.595 18.215 4.605a166.909 166.909 0 0 0 20.808 50.3l-9.617 16.087-11.745 19.669a202.489 202.489 0 0 0 18.594 21.333 206.2 206.2 0 0 0 21.333 18.623l19.671-11.774 16.087-9.617a166.909 166.909 0 0 0 50.3 20.808l4.6 18.215 5.595 22.207a205.932 205.932 0 0 0 56.48 0l5.595-22.207 4.605-18.186a168.021 168.021 0 0 0 50.3-20.837l16.088 9.617 19.679 11.774a206.2 206.2 0 0 0 21.333-18.623 202.489 202.489 0 0 0 18.594-21.333l-11.745-19.671z" fill="#3f5163" fill-rule="evenodd"/><path d="m346.024 296.252a127.313 127.313 0 1 0 -180.048 0 127.315 127.315 0 0 0 180.048 0z" fill="#d5e3f2" fill-rule="evenodd"/><path d="m118.064 81.727a209.172 209.172 0 0 1 18.594-21.327q4.94-4.941 10.113-9.472l-15.271-9.128a206.777 206.777 0 0 0 -39.927 39.927l11.745 19.673 9.617 16.117a166.588 166.588 0 0 0 -20.808 50.3l-18.215 4.575-22.207 5.6a205.932 205.932 0 0 0 0 56.48l22.207 5.595 18.215 4.605a166.909 166.909 0 0 0 20.808 50.3l-9.617 16.087-11.745 19.669a202.489 202.489 0 0 0 18.594 21.333c3 3 6.061 5.916 9.209 8.685q5.9 5.2 12.124 9.938l.466-.291-.583-9.647-.9-15.125c-4.4-4.809-8.539-9.793-12.415-14.893l11.745-19.671 9.618-16.087a166.886 166.886 0 0 1 -20.809-50.3l-18.222-4.607-22.2-5.595a208.319 208.319 0 0 1 0-56.48l22.208-5.6 18.214-4.575a166.565 166.565 0 0 1 20.809-50.3l-9.622-16.113zm75.686-18.564a167.053 167.053 0 0 1 50.33-20.808l4.576-18.215 5.595-22.207c4.984-.67 10-1.195 15.009-1.515a208.021 208.021 0 0 0 -41.5 1.515l-5.595 22.207-4.6 18.215a166.694 166.694 0 0 0 -36.6 13.173z" fill="#334454" fill-rule="evenodd"/><path d="m162.566 435.7a7.2 7.2 0 1 1 0 14.4h-74.315l-12.095 32.436a7.17 7.17 0 0 1 -6.7 4.692h-50.625a7.184 7.184 0 1 1 0-14.368h45.639l11.89-31.882a7.177 7.177 0 0 1 6.94-5.278zm186.868 14.4a7.2 7.2 0 1 1 0-14.4h79.266a7.178 7.178 0 0 1 6.936 5.275l11.89 31.882h45.639a7.184 7.184 0 1 1 0 14.368h-50.618a7.17 7.17 0 0 1 -6.7-4.692l-12.098-32.433zm-1.4-37.479a7.2 7.2 0 1 1 0-14.4h131.2a7.2 7.2 0 0 1 0 14.4zm1.4-37.478a7.2 7.2 0 1 1 0-14.4h74.315l12.095-32.466a7.143 7.143 0 0 1 6.7-4.663v-.029h50.622a7.2 7.2 0 0 1 0 14.4h-45.636l-11.89 31.854a7.17 7.17 0 0 1 -6.936 5.3zm-186.868-14.4a7.2 7.2 0 1 1 0 14.4h-79.266a7.169 7.169 0 0 1 -6.936-5.3l-11.894-31.858h-45.639a7.2 7.2 0 0 1 0-14.4h50.622v.029a7.143 7.143 0 0 1 6.7 4.663l12.1 32.466zm1.4 37.478a7.2 7.2 0 1 1 0 14.4h-131.204a7.2 7.2 0 1 1 0-14.4z" fill="#ffab02"/><g fill-rule="evenodd"><path d="m507.857 480.03a14.689 14.689 0 1 1 -14.688-14.688 14.688 14.688 0 0 1 14.688 14.688z" fill="#69a7ff"/><path d="m507.857 330.787a14.689 14.689 0 1 0 -14.688 14.688 14.665 14.665 0 0 0 14.688-14.688z" fill="#69a7ff"/><path d="m493.956 405.423a14.7 14.7 0 1 1 -14.718-14.717 14.708 14.708 0 0 1 14.718 14.717z" fill="#ff3d50"/><path d="m4.143 480.03a14.689 14.689 0 1 0 14.688-14.688 14.688 14.688 0 0 0 -14.688 14.688z" fill="#69a7ff"/><path d="m4.143 330.787a14.689 14.689 0 1 1 14.688 14.688 14.665 14.665 0 0 1 -14.688-14.688z" fill="#69a7ff"/><path d="m18.044 405.423a14.7 14.7 0 1 0 14.718-14.717 14.708 14.708 0 0 0 -14.718 14.717z" fill="#ff3d50"/><path d="m367.1 426.493a34.727 34.727 0 0 0 8.276-28.793l-4.2-27.919c-7.432-49.078-40.626-90.228-90.257-90.228h-49.837c-49.631 0-82.825 41.15-90.257 90.228l-4.225 27.919a34.841 34.841 0 0 0 8.305 28.793c26.55 30.892 197.272 28.969 222.19 0z" fill="#ff3d50"/><path d="m194.07 194.949a61.93 61.93 0 0 1 123.86 0c0 112.785-123.86 112.785-123.86 0z" fill="#faba7b"/><path d="m129.634 331.778h126.366 126.366l-9.822 162.765h-116.544-116.544z" fill="#69a7ff"/><path d="m256 427.193a21.77 21.77 0 1 0 -21.77-21.77 21.828 21.828 0 0 0 21.77 21.77z" fill="#d5e3f2"/></g><path d="m121.649 479.039h268.702v32.961h-268.702z" fill="#d5e3f2"/><path d="m207.826 194.949a62.139 62.139 0 0 1 55.052-61.55 59.557 59.557 0 0 0 -6.878-.379 62.1 62.1 0 0 0 -61.93 61.929c0 56.393 30.951 84.6 61.93 84.6a54.068 54.068 0 0 0 6.878-.467c-28.531-3.876-55.052-31.912-55.052-84.137z" fill="#f5ad65" fill-rule="evenodd"/><path d="m171.688 331.778a99.4 99.4 0 0 1 15.242-18.565 81.5 81.5 0 0 1 57.15-22.906h49.836a81.04 81.04 0 0 1 44.53 12.939c.467.321.962.641 1.458.991-.408-.408-.816-.816-1.224-1.2a81.5 81.5 0 0 0 -57.762-23.489h-49.836a81.565 81.565 0 0 0 -57.791 23.489 104.361 104.361 0 0 0 -20.691 28.741z" fill="#e82e41" fill-rule="evenodd"/><path d="m146.567 360.746-.729-12.24-1.02-16.728h-15.184l.845 13.843.904 15.125.583 9.647.291 4.75 1.399 23.081.874 14.397 1.37 23.082.874 14.397 1.749 28.939h15.184l-1.749-28.939-.845-14.397-.262-4.226-1.137-18.856-.874-14.397-1.399-23.081-.816-13.523z" fill="#5f96e6" fill-rule="evenodd"/><path d="m132.811 499.41v-20.371h-11.162v32.961h268.702v-12.59z" fill="#b7cfe8" fill-rule="evenodd"/></svg>