<svg fill="none" height="512" viewBox="0 0 24 24" width="512" xmlns="http://www.w3.org/2000/svg"><g clip-rule="evenodd" fill-rule="evenodd"><path d="m3 20c0-3.171 2.10851-5.8495 5-6.7101v4.7101c0 .5523.44772 1 1 1h3c.5523 0 1 .4477 1 1v2c0 .5523-.4477 1-1 1h-6c-1.65685 0-3-1.3431-3-3z" fill="#c4e6ff"/><path d="m3 20c0-3.866 3.13401-7 7-7h4c.5523 0 1 .4477 1 1s-.4477 1-1 1h-4c-2.76142 0-5 2.2386-5 5 0 .5523.44772 1 1 1h6c.5523 0 1 .4477 1 1s-.4477 1-1 1h-6c-1.65685 0-3-1.3431-3-3z" fill="#024493"/><path d="m9 6c0-1.65685 1.3431-3 3-3s3 1.34315 3 3-1.3431 3-3 3-3-1.34315-3-3zm3-5c-2.76142 0-5 2.23858-5 5s2.23858 5 5 5c2.7614 0 5-2.23858 5-5s-2.2386-5-5-5zm7 14c.5523 0 1 .4477 1 1v2h2c.5523 0 1 .4477 1 1s-.4477 1-1 1h-2v2c0 .5522-.4477 1-1 1s-1-.4478-1-1v-2h-2c-.5523 0-1-.4477-1-1s.4477-1 1-1h2v-2c0-.5523.4477-1 1-1z" fill="#1e93ff"/></g></svg>