<svg id="Capa_1" enable-background="new 0 0 512 512" height="512" viewBox="0 0 512 512" width="512" xmlns="http://www.w3.org/2000/svg"><g><path d="m455.786 278.237c-4.835 1.243-9.952 1.928-15.259 1.933-.039 0-.077-.002-.116-.005l-14.884-1.205c-.874 8.376-3.661 16.18-7.906 22.982 2.145 6.146 3.322 12.735 3.322 19.589 0 2.48-.171 4.921-.467 7.325h56.392c.322-2.391.503-4.826.503-7.304 0-17.697-8.476-33.411-21.585-43.315z" fill="#c53287"/><g><g><path d="m106.881 189.229-2.46-13.437c-3.35-18.295 2.382-35.838 13.694-48.432.84-.936 1.726-1.817 2.634-2.672l-8.566-14.837c-.368-.132-.685-.417-.815-.854-.125-.418-.261-.83-.395-1.242l-10.563-18.296c-1.33-1.443-2.737-2.791-4.221-4.022-.489-.406-1.213-.406-1.702 0-6.729 5.578-11.971 13.439-14.903 22.616-.301.942-1.452 1.25-2.178.579-14.198-13.131-32.209-19.107-48.59-17.488-.63.062-1.136.569-1.198 1.198-1.62 16.38 4.357 34.391 17.488 48.59.671.726.363 1.877-.579 2.178-9.177 2.932-17.038 8.174-22.616 14.903-.406.49-.406 1.213 0 1.702 5.767 6.956 13.98 12.314 23.56 15.179 1.064.318 1.285 1.725.365 2.347-4.628 3.125-8.71 6.816-12.103 10.953-.401.489-.401 1.206 0 1.696 7.889 9.62 19.513 16.816 33.058 20.094 9.429-12.028 23.815-19.98 40.09-20.755z" fill="#00c285"/></g><path d="m81.724 196.819c-6.148-6.585-11.421-14.389-15.407-23.253-11.228-24.971-9.512-52.019 2.339-71.817-12.449-8.289-26.67-11.907-39.84-10.605-.63.062-1.136.569-1.198 1.198-1.62 16.38 4.357 34.391 17.488 48.59.671.726.363 1.877-.579 2.178-9.177 2.932-17.038 8.174-22.616 14.903-.406.49-.406 1.213 0 1.702 5.767 6.956 13.98 12.314 23.56 15.179 1.064.318 1.285 1.725.365 2.347-4.628 3.125-8.71 6.816-12.103 10.953-.401.489-.401 1.206 0 1.696 7.887 9.618 19.508 16.813 33.049 20.091 4.119-5.253 9.185-9.723 14.942-13.162z" fill="#07b27b"/></g><g><g><path d="m494.466 232.694c-4.909-5.923-11.829-10.537-19.907-13.117-.829-.265-1.1-1.278-.509-1.917 11.558-12.498 16.818-28.351 15.393-42.769-.055-.554-.501-1-1.055-1.055-14.418-1.426-30.271 3.835-42.769 15.393-.639.591-1.652.32-1.917-.51-2.58-8.077-7.194-14.997-13.117-19.906-.431-.357-1.067-.357-1.498 0-6.123 5.076-10.838 12.305-13.361 20.737-.28.937-1.518 1.131-2.066.321-2.751-4.073-6-7.667-9.641-10.653-.186-.153-.411-.226-.64-.247 6.882 9.095 10.969 20.421 10.969 32.705 0 8.102-1.789 15.782-4.972 22.687 10.141 9.858 16.451 23.638 16.451 38.899 0 1.925-.104 3.825-.299 5.698l14.884 1.205c.038.003.077.005.116.005 18.005-.016 33.915-7.689 43.533-19.418.353-.431.353-1.062 0-1.492-2.986-3.641-6.579-6.89-10.653-9.641-.81-.547-.616-1.785.321-2.065 8.432-2.522 15.661-7.238 20.737-13.361.357-.432.357-1.068 0-1.499z" fill="#0ed290"/></g><g><path d="m436 227.001c0-14.077 2.86-27.173 7.763-38.15-.02-.044-.046-.084-.061-.132-2.58-8.077-7.194-14.997-13.117-19.906-.431-.357-1.067-.357-1.498 0-6.123 5.076-10.838 12.305-13.361 20.737-.28.937-1.518 1.131-2.066.321-2.751-4.073-6-7.667-9.641-10.653-.186-.153-.411-.226-.64-.247 6.882 9.095 10.969 20.421 10.969 32.705 0 8.102-1.789 15.782-4.972 22.687 10.141 9.858 16.451 23.638 16.451 38.899 0 1.925-.104 3.825-.299 5.698l14.884 1.205c.038.003.077.005.116.005 3.921-.004 7.735-.39 11.414-1.083-9.785-12.815-15.942-31.399-15.942-52.086z" fill="#00c285"/></g></g><path d="m349.323 181.193c0 10.913-4.141 20.858-10.935 28.352 3.94 4.346 6.98 9.52 8.845 15.225 7.321-3.682 15.583-5.767 24.336-5.767 14.705 0 28.035 5.859 37.807 15.359 3.184-6.905 4.972-14.585 4.972-22.687 0-29.966-24.292-54.258-54.258-54.258-5.75 0-11.287.902-16.487 2.559 3.632 6.236 5.72 13.481 5.72 21.217z" fill="#98246a"/><g><path d="m94.413 241.25h21.994l-9.525-52.021c-28.747 1.369-51.635 25.105-51.635 54.191 0 4.689.595 9.239 1.714 13.579 9.518-9.714 22.777-15.749 37.452-15.749z" fill="#fedf30"/></g><path d="m349.323 237.898c0 .659-.017 1.315-.047 1.967l1.406 2.071c7.316 10.773 17.968 18.77 30.242 23.12 17.116 6.066 30.71 19.733 36.696 36.886 5.194-8.323 8.205-18.148 8.205-28.68 0-29.966-24.292-54.258-54.258-54.258-8.753 0-17.015 2.085-24.336 5.767 1.353 4.133 2.092 8.543 2.092 13.127z" fill="#e03d9c"/><g><g><path d="m349.323 181.193c0-22-16.827-40.063-38.311-42.04.195-1.645.306-3.316.306-5.014 0-23.321-18.906-42.227-42.227-42.227s-42.227 18.906-42.227 42.227c0 1.698.112 3.368.307 5.014-4.456.41-8.706 1.521-12.653 3.207 4.491 10.073 6.146 21.59 3.978 33.431l-13.088 71.483c6.447 3.395 12.112 8.075 16.624 13.726.57.714.57 1.742 0 2.457-1.891 2.369-3.99 4.563-6.258 6.572.029-.026.06-.05.089-.076 12.748 13.197 20.605 31.149 20.605 50.947 0 2.689-.155 5.341-.437 7.956h33.459c-.297-2.403-.467-4.844-.467-7.325 0-25.981 16.769-48.235 40.018-56.475 12.275-4.35 22.926-12.347 30.243-23.12l3.28-4.83c1.161-1.709 3.68-1.709 4.84 0l1.874 2.759c.03-.652.047-1.308.047-1.967 0-10.913-4.141-20.858-10.935-28.353 6.793-7.494 10.933-17.439 10.933-28.352z" fill="#a2e62e"/></g><g><path d="m294.43 100.36c-7.058-5.303-15.831-8.447-25.338-8.447-23.321 0-42.227 18.906-42.227 42.227 0 1.698.112 3.368.307 5.014-4.456.41-8.706 1.521-12.653 3.207 4.491 10.073 6.146 21.59 3.978 33.431l-13.088 71.483c6.447 3.395 12.112 8.075 16.624 13.726.57.714.57 1.742 0 2.457-1.891 2.369-3.99 4.563-6.258 6.572.029-.026.06-.05.089-.076 12.748 13.197 20.605 31.149 20.605 50.947 0 2.689-.155 5.341-.437 7.956h21.051c-10.624-7.669-17.545-20.149-17.545-34.252 0-9.527 3.156-18.317 8.479-25.382 1.323-1.756 1.323-4.184 0-5.94-5.323-7.065-8.479-15.855-8.479-25.383s3.156-18.317 8.479-25.383c1.323-1.756 1.323-4.184 0-5.94-5.323-7.065-8.479-15.855-8.479-25.382 0-20.486 14.59-37.558 33.945-41.407 2.397-.477 4.104-2.569 4.064-5.013-.003-.211-.005-.422-.005-.634 0-13.814 6.634-26.077 16.888-33.781z" fill="#97d729"/></g></g><g><g><g fill="#a2e62e"><path d="m139.018 114.136-1.05-6.755-36.723-63.606c-1.302-2.254-4.184-3.026-6.438-1.725l-12.245 7.07c-2.254 1.302-3.027 4.184-1.725 6.438l39.912 69.129c5.212-4.905 11.483-8.473 18.269-10.551z"/><path d="m237.303 49.12-12.245-7.07c-2.254-1.301-5.137-.529-6.438 1.725l-36.723 63.607-.927 5.964c7.033 1.678 13.619 4.911 19.18 9.551l38.878-67.339c1.301-2.254.529-5.136-1.725-6.438z"/></g><path d="m139.018 114.136c4.599-1.408 9.429-2.141 14.321-2.141h16.239c3.864 0 7.687.467 11.391 1.351l11.492-73.912c.397-2.554-1.351-4.946-3.905-5.343l-14.038-2.182c-2.554-.397-4.946 1.351-5.343 3.905l-8.288 53.307c-.17 1.091-1.741 1.091-1.911 0l-8.289-53.307c-.397-2.553-2.789-4.302-5.343-3.905l-14.037 2.182c-2.554.397-4.302 2.789-3.905 5.343z" fill="#97d729"/></g><g><path d="m116.406 241.25h64.618c8.807 0 17.097 2.189 24.384 6.025l13.088-71.483c3.35-18.295-2.382-35.838-13.694-48.432-8.932-9.945-21.857-15.365-35.224-15.365h-16.239c-13.367 0-26.292 5.42-35.224 15.365-11.312 12.594-17.044 30.136-13.694 48.432z" fill="#fe9901"/></g><g><path d="m116.406 241.25h42.529l-11.985-65.458c-3.35-18.295 2.382-35.838 13.694-48.432 5.941-6.614 13.651-11.212 22.079-13.56-4.245-1.182-8.668-1.804-13.145-1.804h-16.239c-13.367 0-26.292 5.42-35.224 15.365-11.312 12.594-17.044 30.136-13.694 48.432z" fill="#fb8801"/></g></g><g><g><path d="m420.476 328.856c.297-2.403.467-4.844.467-7.325 0-25.981-16.769-48.235-40.018-56.475-12.275-4.35-22.926-12.347-30.242-23.12l-3.28-4.83c-1.161-1.709-3.68-1.709-4.84 0l-3.28 4.83c-7.316 10.773-17.968 18.77-30.243 23.12-23.249 8.239-40.018 30.494-40.018 56.475 0 2.48.171 4.921.467 7.325z" fill="#fe9901"/><path d="m390.069 328.856c.177-2.403.279-4.844.279-7.325 0-25.981-10.015-48.235-23.9-56.475-7.331-4.35-13.692-12.347-18.062-23.12l-1.959-4.83c-.693-1.709-2.198-1.709-2.891 0l-1.959 4.83c-4.37 10.773-10.731 18.77-18.062 23.12-13.885 8.239-23.9 30.494-23.9 56.475 0 2.48.102 4.921.279 7.325z" fill="#fb8801"/><path d="m360.068 328.856c.059-2.403.093-4.844.093-7.324 0-25.981-3.351-48.235-7.997-56.475-2.453-4.35-4.581-12.346-6.043-23.12l-.655-4.83c-.232-1.709-.735-1.709-.967 0l-.655 4.83c-1.462 10.774-3.59 18.77-6.043 23.12-4.646 8.239-7.997 30.494-7.997 56.475 0 2.48.034 4.921.093 7.324z" fill="#fe9901"/></g></g><g><path d="m215.863 269.953c-9.264 8.242-21.464 13.255-34.839 13.255-8.039 0-15.649-1.821-22.457-5.056-1.065-.506-2.338.024-2.721 1.139-3.271 9.513-9.194 17.792-16.895 23.943-.716.572-1.748.572-2.464 0-7.702-6.151-13.624-14.43-16.895-23.943-.383-1.115-1.657-1.645-2.721-1.139-6.808 3.236-14.418 5.056-22.457 5.056-13.375 0-25.574-5.013-34.839-13.255-12.749 13.197-20.606 31.149-20.606 50.947 0 2.689.155 5.341.437 7.956h196.625c.282-2.614.437-5.266.437-7.956-.001-19.798-7.857-37.75-20.605-50.947z" fill="#fb2b3a"/><path d="m91.482 283.123c-12.223-.673-23.326-5.534-31.908-13.17-12.748 13.197-20.605 31.149-20.605 50.947 0 2.689.155 5.341.437 7.956h42.031c-.282-2.615-.437-5.267-.437-7.956 0-13.823 3.835-26.743 10.482-37.777z" fill="#e41f2d"/><g><path d="m181.024 241.25h-86.611c-16.6 0-31.397 7.714-41.008 19.751-.57.714-.57 1.742 0 2.457 9.61 12.037 24.407 19.751 41.008 19.751 8.04 0 15.649-1.821 22.457-5.056 1.065-.506 2.338.024 2.721 1.139 3.271 9.513 9.194 17.792 16.895 23.943.716.572 1.748.572 2.464 0 7.702-6.151 13.624-14.43 16.895-23.943.383-1.115 1.657-1.645 2.721-1.139 6.808 3.235 14.418 5.056 22.457 5.056 16.6 0 31.397-7.714 41.008-19.751.57-.714.57-1.742 0-2.457-9.609-12.037-24.407-19.751-41.007-19.751z" fill="#00c285"/></g><g><g><path d="m94.428 263.457c-.57-.714-.57-1.742 0-2.457 9.61-12.037 24.407-19.751 41.008-19.751h-41.023c-16.6 0-31.397 7.714-41.008 19.751-.57.714-.57 1.742 0 2.457 9.61 12.037 24.407 19.751 41.008 19.751 7.271 0 14.185-1.501 20.478-4.18-8.054-3.433-15.075-8.821-20.463-15.571z" fill="#07b27b"/></g></g></g><g fill="#f6a96c"><path d="m491.478 379.953v-46.097c0-2.761-2.239-5-5-5h-460.956c-2.761 0-5 2.239-5 5v46.097z"/><path d="m20.522 429.051v46.097c0 2.761 2.239 5 5 5h460.956c2.761 0 5-2.239 5-5v-46.097z"/></g><g fill="#ea9b58"><path d="m84 475.148v-46.097h-63.478v46.097c0 2.761 2.239 5 5 5h63.478c-2.761 0-5-2.238-5-5z"/><path d="m84 379.953v-46.097c0-2.761 2.239-5 5-5h-63.478c-2.761 0-5 2.239-5 5v46.097z"/></g><g><path d="m501.5 430.051h-491c-1.657 0-3-1.343-3-3v-45.099c0-1.657 1.343-3 3-3h491c1.657 0 3 1.343 3 3v45.099c0 1.657-1.343 3-3 3z" fill="#ffbd86"/></g><g><path d="m72 427.051v-45.099c0-1.657 1.343-3 3-3h-64.5c-1.657 0-3 1.343-3 3v45.099c0 1.657 1.343 3 3 3h64.5c-1.657 0-3-1.343-3-3z" fill="#f6a96c"/></g><g><path d="m501.5 371.453h-2.522v-37.597c0-6.893-5.607-12.5-12.5-12.5h-1.611c-.048-15.397-5.777-29.468-15.176-40.268 7.872-3.774 14.812-9.047 20.166-15.578 2.619-3.189 2.619-7.82 0-11.01-1.148-1.399-2.372-2.748-3.667-4.041 5.448-2.97 10.207-6.846 14.05-11.481 2.658-3.207 2.658-7.863 0-11.07-4.078-4.92-9.203-8.996-15.082-12.035 8.934-12.522 13.171-27.327 11.748-41.72-.405-4.104-3.678-7.376-7.78-7.781-14.397-1.419-29.199 2.813-41.72 11.748-3.041-5.881-7.117-11.005-12.039-15.085-3.205-2.653-7.858-2.654-11.067.004-4.636 3.843-8.512 8.602-11.481 14.049-1.293-1.295-2.642-2.519-4.041-3.666-.179-.147-.376-.258-.564-.388-11.329-14.08-28.687-23.115-48.124-23.115-4.507 0-8.9.492-13.134 1.415-6.781-9.071-16.62-15.74-28.154-18.484-.687-26.825-22.723-48.436-49.71-48.436s-49.023 21.61-49.71 48.436c-.387.092-.767.201-1.151.302-2.219-3.809-4.825-7.437-7.849-10.803-.253-.282-.522-.546-.78-.822l6.435-11.147c2.071-3.587.842-8.174-2.745-10.245-3.587-2.07-8.174-.843-10.245 2.745l-5.308 9.194c-2.468-1.445-5.052-2.696-7.73-3.741l33.713-58.392 7.417 4.282-10.592 18.347c-2.071 3.587-.842 8.174 2.745 10.245 3.587 2.069 8.174.842 10.245-2.745l11.987-20.761c3.365-5.832 1.36-13.315-4.471-16.683l-12.244-7.069c-2.826-1.632-6.117-2.064-9.268-1.221-3.151.845-5.785 2.865-7.416 5.69l-16.648 28.836 4.396-28.275c1.031-6.635-3.528-12.873-10.164-13.906l-14.039-2.183c-6.64-1.032-12.873 3.53-13.905 10.164l-1.833 11.79-1.833-11.79c-1.031-6.635-7.271-11.187-13.906-10.164l-14.039 2.183c-3.214.501-6.042 2.223-7.961 4.848-1.92 2.627-2.702 5.845-2.202 9.059l4.396 28.274-16.647-28.836c-1.631-2.825-4.265-4.846-7.416-5.69-3.151-.843-6.443-.411-9.268 1.221l-12.246 7.07c-5.83 3.366-7.835 10.85-4.469 16.683l12.975 22.47c-4.701 4.419-8.614 9.747-11.568 15.761-14.227-10.486-31.193-15.487-47.671-13.86-4.175.414-7.506 3.744-7.921 7.923-1.629 16.477 3.376 33.442 13.861 47.669-7.006 3.442-13.091 8.177-17.878 13.952-2.708 3.266-2.709 8.007-.001 11.275 4.568 5.511 10.3 10.06 16.89 13.448-1.82 1.738-3.521 3.571-5.096 5.492-2.659 3.245-2.659 7.956.002 11.204 7.03 8.573 16.491 15.225 27.238 19.473-4.726 8.724-7.425 18.7-7.425 29.302 0 3.895.372 7.703 1.067 11.398-.426.499-.86.989-1.271 1.504-2.774 3.478-2.774 8.335.001 11.814.584.731 1.192 1.436 1.805 2.136-11.174 13.866-17.88 31.474-17.88 50.627 0 .153.011.303.012.456h-5.959c-6.893 0-12.5 5.607-12.5 12.5v37.597h-2.522c-5.79 0-10.5 4.71-10.5 10.5v45.099c0 5.79 4.71 10.5 10.5 10.5h2.522v37.597c0 6.893 5.607 12.5 12.5 12.5h373.478c4.142 0 7.5-3.357 7.5-7.5s-3.358-7.5-7.5-7.5h-370.978v-35.097h455.956v35.097h-49.978c-4.142 0-7.5 3.357-7.5 7.5s3.358 7.5 7.5 7.5h52.478c6.893 0 12.5-5.607 12.5-12.5v-37.597h2.522c5.79 0 10.5-4.71 10.5-10.5v-45.099c0-5.788-4.71-10.498-10.5-10.498zm-31.634-50.097h-41.426c-.017-6.379-.947-12.607-2.676-18.542 2.691-4.91 4.73-10.223 6.01-15.823l8.069.653c.228.018.456.026.69.026 4.517-.004 8.97-.47 13.296-1.325 9.777 8.535 15.979 21.058 16.037 35.011zm-50.016-125.273c1.428-1.092 2.529-2.604 3.061-4.383 1.467-4.904 3.865-9.4 6.934-13.081 2.93 3.494 5.214 7.692 6.713 12.384.909 2.845 3.172 4.997 6.054 5.757 2.879.756 5.906.001 8.1-2.025 8.952-8.279 20.366-13.151 31.424-13.592-.44 11.058-5.313 22.473-13.591 31.425-2.026 2.189-2.784 5.216-2.027 8.094.757 2.882 2.908 5.146 5.759 6.061 4.69 1.498 8.888 3.782 12.382 6.712-3.682 3.069-8.177 5.467-13.081 6.934-3.189.955-5.575 3.697-6.079 6.986-.503 3.287.952 6.615 3.711 8.48 1.891 1.277 3.653 2.673 5.272 4.173-8.567 7.945-20.777 12.595-33.716 12.663l-7.469-.605c-.174-9.096-2.309-17.719-6.023-25.452l17.683-17.683c2.929-2.93 2.929-7.678 0-10.607-2.929-2.928-7.678-2.928-10.606 0l-15.392 15.392c-.272-.325-.554-.641-.832-.961 2.402-6.58 3.723-13.675 3.723-21.077-.002-5.387-.699-10.612-2-15.595zm-1.523 77.179c0 3.745-.454 7.383-1.29 10.875-7.923-11.832-19.558-21.171-33.606-26.15-11.012-3.903-20.191-10.91-26.543-20.264l-.069-.102c-.016-2.852-.278-5.674-.77-8.442 4.861-1.719 10.078-2.674 15.521-2.674 25.781 0 46.757 20.975 46.757 46.757zm-4.887 48.094h-15.595c-.028-17.412-4.159-33.448-11.246-45.509 16.298 9.151 26.777 26.475 26.841 45.509zm-30.594 0h-15.186c-.011-19.899-1.95-37.985-5.17-49.931.044.026.087.055.131.081 11.879 7.048 20.182 27.531 20.225 49.85zm-28.594-156.063c1.913-.242 3.86-.375 5.838-.375 25.782 0 46.758 20.976 46.758 46.758 0 3.491-.4 6.887-1.132 10.16-9.788-6.521-21.53-10.332-34.148-10.332-7.13 0-13.972 1.233-20.347 3.469-.973-1.87-2.059-3.686-3.27-5.428 5.756-8.282 8.872-18.143 8.872-28.353 0-5.56-.906-10.904-2.571-15.899zm-9.919 103.447c.22-.391.437-.799.649-1.225.213.427.429.834.649 1.225 3.485 6.182 7.013 26.23 7.029 52.616h-15.356c.016-26.387 3.544-46.434 7.029-52.616zm-129.517-31.206c.435-.95.684-2.003.684-3.116 0-.164-.014-.324-.025-.486l10.398-56.791c1.865-10.189 1.263-20.413-1.577-29.986 1.168-.229 2.35-.422 3.562-.534 2.014-.186 3.868-1.177 5.141-2.748 1.273-1.572 1.857-3.592 1.62-5.601-.171-1.449-.254-2.802-.254-4.134 0-19.148 15.579-34.727 34.727-34.727s34.727 15.578 34.727 34.727c0 1.333-.083 2.685-.254 4.132-.238 2.009.346 4.029 1.619 5.602s3.127 2.563 5.142 2.749c17.957 1.651 31.498 16.514 31.498 34.57 0 8.64-3.193 16.92-8.991 23.315-2.592 2.857-2.592 7.216 0 10.074 3.822 4.216 6.503 9.253 7.893 14.67-1.738.779-3.263 2.015-4.367 3.64l-3.28 4.83c-6.353 9.354-15.531 16.361-26.543 20.265-12.018 4.259-22.268 11.712-29.942 21.183v-14.802l29.432-32.161c2.796-3.056 2.586-7.8-.469-10.597-3.056-2.795-7.801-2.586-10.596.47l-18.367 20.069v-24.862l29.399-31.707c2.816-3.038 2.637-7.783-.4-10.6-3.038-2.815-7.783-2.637-10.599.4l-18.4 19.844v-35.388c0-4.143-3.358-7.5-7.5-7.5s-7.5 3.357-7.5 7.5v35.388l-18.4-19.844c-2.815-3.037-7.561-3.217-10.599-.4-3.037 2.816-3.216 7.562-.4 10.6l29.399 31.707v24.862l-18.367-20.069c-2.796-3.055-7.54-3.265-10.596-.47-3.056 2.797-3.266 7.541-.469 10.597l29.432 32.161v24.406l-8.895-9.902c-2.768-3.082-7.51-3.335-10.591-.568-3.082 2.769-3.336 7.511-.568 10.592l20.054 22.326v7.363c-.04.921-.064 1.845-.066 2.772h-17.57c.001-.153.012-.303.012-.456 0-19.153-6.705-36.761-17.88-50.627.613-.7 1.222-1.406 1.807-2.138 2.774-3.478 2.774-8.335-.001-11.814-4.071-5.099-8.864-9.408-14.161-12.866zm112.658 33.892c-3.22 11.946-5.158 30.031-5.17 49.93h-15.186c.043-22.319 8.346-42.802 20.225-49.85.045-.025.088-.054.131-.08zm-24.108 4.421c-7.088 12.061-11.219 28.097-11.246 45.509h-15.595c.064-19.035 10.543-36.359 26.841-45.509zm-208.953-27.097h86.611c12.202 0 23.667 4.862 32.096 13.48-8.43 8.617-19.895 13.479-32.096 13.479-6.718 0-13.191-1.457-19.238-4.331-2.437-1.157-5.259-1.221-7.746-.176-2.484 1.044-4.411 3.103-5.287 5.65-2.277 6.623-6.056 12.587-11.035 17.469-4.979-4.883-8.757-10.847-11.035-17.47-.876-2.547-2.803-4.605-5.287-5.649-1.176-.494-2.426-.74-3.675-.74-1.394 0-2.786.306-4.07.916-6.047 2.874-12.52 4.331-19.238 4.331-12.202 0-23.667-4.862-32.096-13.479 8.43-8.618 19.894-13.48 32.096-13.48zm-31.65-5.986c.313-22.503 16.598-41.196 38.009-45.258l6.636 36.244h-12.995c-11.382 0-22.28 3.176-31.65 9.014zm136.46-110.392c8.183 9.11 12.588 20.609 12.701 32.547h-33.924c-4.142 0-7.5 3.357-7.5 7.5s3.358 7.5 7.5 7.5h32.116l-2.93 16h-24.186c-4.142 0-7.5 3.357-7.5 7.5s3.358 7.5 7.5 7.5h21.44l-2.93 16h-13.51c-3.916 0-7.127 3.002-7.466 6.831h-35.315v-10.947c0-4.143-3.358-7.5-7.5-7.5s-7.5 3.357-7.5 7.5v10.947h-7.56l-10.859-59.309c-2.787-15.217 1.549-30.55 11.896-42.069 7.351-8.183 18.155-12.876 29.645-12.876h16.239c11.487 0 22.293 4.693 29.643 12.876zm-55.513-92.618 7.856 50.521c.646 4.152 4.165 7.166 8.367 7.165s7.72-3.015 8.365-7.166l7.855-50.52 8.464 1.315-9.901 63.673c-1.7-.154-3.413-.246-5.139-.246h-16.239c-2.746 0-5.463.21-8.136.597l-9.955-64.024zm-47.566 10.186 34.305 59.418c-2.616 1.17-5.13 2.542-7.52 4.104l-34.202-59.24zm-53.012 139.103c2.091-2.027 4.399-3.896 6.903-5.588 2.806-1.896 4.289-5.284 3.777-8.632-.513-3.35-2.943-6.142-6.191-7.114-6.111-1.828-11.681-4.903-16.13-8.854 4.243-3.793 9.452-6.727 15.317-8.601 2.9-.926 5.093-3.231 5.867-6.168.772-2.933 0-6.017-2.063-8.247-9.841-10.641-15.519-24.306-15.744-37.444 13.141.225 26.805 5.901 37.444 15.741 2.231 2.064 5.313 2.838 8.248 2.064 2.936-.772 5.241-2.965 6.168-5.865 1.837-5.75 4.698-10.863 8.38-15.058l16.357 28.332c-6.783 7.941-11.442 17.178-13.766 27.01l-8.212-8.212c-2.929-2.928-7.678-2.928-10.606 0-2.929 2.93-2.929 7.678 0 10.607l17.29 17.291c.174 2.276.455 4.557.872 6.837l1.028 5.615c-13.246 2.491-25.014 9.211-33.833 18.715-8.078-2.604-15.35-6.846-21.106-12.429zm17.444 91.207c9.843 6.751 21.554 10.459 33.836 10.459 6.99 0 13.784-1.184 20.266-3.524 3.896 8.515 9.742 16.011 17.13 21.912 1.74 1.388 3.824 2.082 5.909 2.082 2.086 0 4.172-.694 5.914-2.084 7.387-5.899 13.232-13.396 17.128-21.91 6.482 2.341 13.275 3.524 20.265 3.524 12.282 0 23.993-3.708 33.836-10.459 8.822 11.204 14.107 25.316 14.107 40.65 0 .153-.006.304-.008.456h-182.482c-.001-.152-.008-.303-.008-.456 0-15.334 5.285-29.446 14.107-40.65zm436.424 142.301h-482v-36.099h106c4.142 0 7.5-3.357 7.5-7.5s-3.358-7.5-7.5-7.5h-92.978v-35.097h455.956v35.097h-327.978c-4.142 0-7.5 3.357-7.5 7.5s3.358 7.5 7.5 7.5h341z"/><circle cx="49" cy="355.502" r="7.5"/><circle cx="463" cy="355.502" r="7.5"/><circle cx="49" cy="453.502" r="7.5"/><circle cx="463" cy="453.502" r="7.5"/></g></g></svg>